<svg width="97" height="40" viewBox="0 0 97 40" fill="none" xmlns="http://www.w3.org/2000/svg">
<path d="M19.9991 0C8.97143 0 0 8.97277 0 20.0017C0 31.029 8.97143 40 19.9991 40C31.0286 40 40 31.029 40 20.0017C40 8.97277 31.0286 0 19.9991 0ZM19.9991 39.0951C9.45404 39.0951 0.903176 30.5464 0.903176 20C0.903176 9.45536 9.45404 0.906584 19.9991 0.906584C30.5477 0.906584 39.0968 9.45536 39.0968 20.0017C39.0968 30.5464 30.5477 39.0951 19.9991 39.0951Z" fill="#F04B37"/>
<path d="M19.9991 1.58911C9.83147 1.58911 1.5874 9.8311 1.5874 20.0017C1.5874 30.1689 9.83147 38.4143 19.9991 38.4143C30.1684 38.4143 38.4142 30.1689 38.4142 20.0017C38.4142 9.8311 30.1702 1.58911 19.9991 1.58911ZM19.9991 37.5078C10.3296 37.5078 2.4923 29.6708 2.4923 20.0017C2.4923 10.3326 10.3296 2.49397 19.9991 2.49397C29.6686 2.49397 37.5093 10.3326 37.5093 20.0017C37.5093 29.6691 29.6686 37.5078 19.9991 37.5078Z" fill="#F04B37"/>
<path d="M19.999 3.17477C10.707 3.17477 3.17474 10.7067 3.17474 20C3.17474 29.2899 10.7052 36.8235 19.999 36.8235C29.2927 36.8235 36.8249 29.2916 36.8249 20C36.8249 10.7084 29.2927 3.17477 19.999 3.17477ZM19.999 35.9204C11.2085 35.9204 4.07964 28.7918 4.07964 20.0017C4.07964 11.2099 11.2085 4.08136 19.999 4.08136C28.7929 4.08136 35.92 11.2099 35.92 20.0017C35.92 28.7918 28.7929 35.9204 19.999 35.9204Z" fill="#F04B37"/>
<path d="M11.1518 14.6294C11.1501 15.3326 11.2725 15.9876 11.4724 16.5563C11.6241 16.9838 11.8171 17.363 12.024 17.6922C12.3377 18.1851 12.6858 18.5677 12.9944 18.8538C13.1495 18.9969 13.2943 19.1193 13.4218 19.2175C13.5477 19.314 13.6562 19.3916 13.7286 19.445H13.7304C14.1699 19.7535 14.6249 20.0069 15.0851 20.224C15.5453 20.4429 16.0073 20.6256 16.4692 20.7911L16.4295 20.7773L16.4709 20.7911C16.9363 20.9566 17.4741 21.1289 18.0153 21.2926C18.5548 21.4564 19.0943 21.6132 19.539 21.739C20.4663 22.001 21.3625 22.2527 22.1451 22.5319L22.1778 22.5439L22.1433 22.5319C22.5346 22.6732 22.8966 22.818 23.2154 22.9697C23.5326 23.1196 23.8084 23.2764 24.0376 23.4367L24.041 23.4385C24.3444 23.6522 24.5547 23.8659 24.696 24.0693L24.6977 24.0727C24.7874 24.2037 24.8546 24.3416 24.9046 24.5053C24.9546 24.6673 24.9856 24.8569 24.9873 25.0913V25.1V25.181V25.1844C24.9856 25.5498 24.8942 25.8669 24.7201 26.172L24.7184 26.1737C24.5409 26.4822 24.2599 26.789 23.8583 27.0682C23.455 27.3475 22.9397 27.5922 22.3226 27.7628C21.709 27.9352 21.0006 28.0352 20.2284 28.0352C19.3442 28.0352 18.5651 27.9145 17.8705 27.7249C16.8294 27.4405 15.9797 26.9993 15.3109 26.5632C14.9748 26.3444 14.6887 26.1272 14.4439 25.9324C14.3216 25.8359 14.2112 25.7411 14.1078 25.6567C14.0044 25.5688 13.9096 25.4878 13.8183 25.4067L13.2805 26.1341C13.4477 26.2754 13.639 26.4443 13.8803 26.6391C14.1423 26.8494 14.4526 27.0838 14.818 27.3216C15.5488 27.7973 16.483 28.2851 17.6344 28.5987C18.4014 28.809 19.2632 28.9435 20.2301 28.9435C21.0781 28.9435 21.8676 28.8349 22.5691 28.6384C23.2671 28.4419 23.8756 28.161 24.372 27.8163L24.3737 27.8145C24.8684 27.4698 25.2476 27.07 25.5009 26.6287H25.5027C25.7543 26.191 25.8888 25.7135 25.8905 25.1879V25.1844V25.1137V25.0948C25.8905 24.7759 25.8474 24.4967 25.7698 24.2451C25.694 23.9934 25.5837 23.7694 25.4423 23.5626H25.4406C25.2269 23.2489 24.9322 22.9645 24.5599 22.7025L24.5271 22.6801L24.5616 22.7042C24.0014 22.3095 23.2758 21.9803 22.4519 21.6856H22.4501C21.6245 21.3926 20.711 21.1375 19.7872 20.8738C19.3476 20.7497 18.815 20.5946 18.2807 20.4326C17.7498 20.2689 17.219 20.1017 16.7777 19.9431C15.8969 19.6277 15.0317 19.2537 14.2543 18.7073C14.1647 18.6453 14.0251 18.5453 13.8665 18.4161C13.7079 18.2851 13.527 18.1213 13.3408 17.9231C12.972 17.525 12.5824 16.9769 12.3291 16.2582C12.1601 15.7825 12.0584 15.2344 12.0584 14.6312V14.5536V14.5519V14.5277C12.0602 13.6487 12.2998 12.8094 12.722 12.0838C13.146 11.3512 13.7407 10.7411 14.4388 10.2551C15.1437 9.76903 15.9642 9.40364 16.8725 9.16235C17.7826 8.91933 18.7788 8.79696 19.8475 8.79523C21.3591 8.79523 22.6759 9.06411 23.7601 9.43467C24.846 9.80178 25.6974 10.2706 26.3093 10.6739C26.5834 10.8549 26.804 11.0203 26.9815 11.1651L27.5176 10.4395C27.4762 10.405 27.4331 10.3706 27.3866 10.3344C26.8057 9.88796 25.8801 9.28644 24.6116 8.78489C23.3447 8.28506 21.7331 7.89037 19.844 7.8921C18.7064 7.8921 17.6326 8.02308 16.6364 8.28851C15.6401 8.55394 14.7214 8.95725 13.9165 9.51395C13.1254 10.062 12.4307 10.7687 11.9326 11.6322C11.4379 12.4819 11.1553 13.4781 11.1484 14.5071H11.1518V14.514V14.5208C11.1518 14.5277 11.1518 14.5346 11.1518 14.5415V14.5519C11.1518 14.557 11.1518 14.5639 11.1518 14.5691V14.6294Z" fill="#F04B37"/>
<path d="M29.0585 24.9897C29.0482 24.414 28.9671 23.8504 28.8034 23.3213C28.6345 22.7611 28.3794 22.2372 28.0605 21.7718C27.5848 21.0772 26.9953 20.536 26.3852 20.1051L26.4214 20.131L26.3834 20.1034C25.925 19.7828 25.4492 19.5174 24.9666 19.2899C24.4857 19.0607 23.9997 18.8676 23.5153 18.6935L23.5033 18.6918C22.5346 18.3471 21.5625 18.08 20.6524 17.8197C20.2267 17.7008 19.7096 17.5491 19.2028 17.3957C18.6995 17.2423 18.2014 17.082 17.8377 16.9528H17.8395C17.4706 16.8218 17.1328 16.6856 16.8363 16.5443C16.5381 16.403 16.283 16.2565 16.0728 16.1082C16.0297 16.0772 15.9883 16.0496 15.9435 16.0152C15.7918 15.898 15.6022 15.7239 15.466 15.5102C15.3971 15.4033 15.3419 15.2861 15.3006 15.1482C15.2575 15.0086 15.2299 14.8466 15.2282 14.6312V14.5536V14.5501C15.2299 14.2261 15.3092 13.9469 15.4643 13.6729L15.466 13.6694C15.6246 13.3936 15.878 13.1162 16.2451 12.8611H16.2434C16.6002 12.6146 17.0828 12.3871 17.6895 12.2251C18.2962 12.0631 19.0219 11.9666 19.8458 11.9666C21.3608 11.9666 22.5708 12.3216 23.4671 12.7232C23.9152 12.9231 24.2806 13.1351 24.5564 13.3195C24.696 13.4126 24.8098 13.4936 24.8994 13.5643C24.989 13.6332 25.0545 13.6901 25.089 13.7194L25.6302 12.9886C25.5113 12.8886 25.3165 12.737 25.058 12.5646C24.7443 12.3578 24.3358 12.1217 23.8377 11.8976C22.8431 11.4529 21.5039 11.0634 19.8458 11.0634C18.9529 11.0634 18.1497 11.1686 17.4568 11.353C16.7639 11.5391 16.1848 11.8045 15.728 12.1199H15.7298C15.2678 12.4405 14.9162 12.8145 14.6835 13.2196H14.6852C14.4525 13.6229 14.3284 14.0641 14.3267 14.5484V14.5519V14.6294C14.3284 15.1499 14.4508 15.5291 14.618 15.8428C14.7852 16.1565 15.0076 16.3995 15.2075 16.577C15.3385 16.6925 15.4522 16.7752 15.5453 16.8425L15.5557 16.8494C16.0762 17.2182 16.7588 17.5284 17.5378 17.8059C17.9222 17.9421 18.4289 18.1041 18.9409 18.2609C19.4528 18.4178 19.9767 18.5694 20.4059 18.6901C21.3229 18.9504 22.2812 19.2158 23.2103 19.5467L23.181 19.5364L23.2103 19.5484C24.1376 19.8793 25.0494 20.2758 25.8664 20.8462L25.8991 20.8704L25.8664 20.8462C26.4093 21.2289 26.916 21.6977 27.3159 22.282L27.3142 22.2802C27.5831 22.6732 27.7968 23.1127 27.9399 23.5867C28.0795 24.0434 28.1519 24.5329 28.157 25.0414L28.1588 25.0758V25.1051V25.1861C28.1588 25.212 28.1588 25.2258 28.1588 25.2275C28.1536 26.1427 27.9054 27.0131 27.4676 27.768C27.0246 28.5333 26.4007 29.1727 25.6699 29.6811L25.7405 29.6312L25.6699 29.6829C24.939 30.1896 24.0979 30.5705 23.1827 30.8256C22.264 31.0824 21.2729 31.2151 20.2318 31.2151C18.6858 31.2151 17.3293 30.9342 16.1831 30.524C15.0351 30.1137 14.094 29.5812 13.3632 29.0831C12.8772 28.7504 12.4807 28.4333 12.1808 28.1834C12.086 28.1041 12.0016 28.0317 11.9274 27.9679L11.3862 28.6987C11.45 28.7521 11.5189 28.8125 11.5982 28.8762C11.9102 29.1382 12.3308 29.4743 12.8513 29.8294C13.6321 30.3619 14.6404 30.9342 15.8763 31.3737C17.1104 31.8149 18.572 32.1182 20.2284 32.1182H20.2301C21.347 32.1182 22.4191 31.9786 23.4223 31.696C24.422 31.415 25.3527 30.9962 26.1766 30.4257L26.1835 30.4223C27.0074 29.85 27.7279 29.1175 28.2467 28.2213L28.2484 28.2196C28.7586 27.3423 29.0516 26.3202 29.0619 25.2551H29.0637C29.0637 25.2551 29.0654 25.2327 29.0654 25.1844V25.1034V25.0483L29.0585 24.9897Z" fill="#F04B37"/>
<path d="M27.4727 25.0827C27.471 24.1572 27.209 23.335 26.7488 22.6663C26.4041 22.1613 25.9611 21.7494 25.4716 21.403H25.4699C24.7305 20.8859 23.8755 20.5102 22.981 20.1896C22.0813 19.869 21.1367 19.607 20.218 19.3468C19.3528 19.102 18.1135 18.7349 17.3051 18.4488C16.4967 18.161 15.759 17.83 15.1592 17.4095L15.1558 17.4061C15.0523 17.3337 14.911 17.2303 14.7507 17.0889C14.5094 16.8735 14.2319 16.5684 14.0164 16.1685C13.7993 15.7652 13.6424 15.2689 13.6424 14.6311V14.5536V14.5467C13.6441 13.9417 13.8027 13.3799 14.094 12.88L14.0475 12.9576L14.094 12.88C14.387 12.375 14.8093 11.9286 15.3436 11.5598C16.4019 10.8238 17.9566 10.3826 19.8492 10.3826C21.6159 10.3826 23.0517 10.798 24.1203 11.2771C24.6529 11.5167 25.0941 11.7735 25.4354 11.9958C25.6974 12.1699 25.9008 12.325 26.0421 12.444L26.5799 11.7149C26.4179 11.5822 26.2041 11.4202 25.9353 11.2427C24.8011 10.4929 22.7155 9.47775 19.8492 9.47775C17.8205 9.47948 16.0882 9.94311 14.8283 10.8169C14.2009 11.253 13.6786 11.7942 13.3115 12.4267C12.9461 13.0558 12.741 13.7797 12.741 14.5432C12.741 14.5432 12.741 14.5484 12.741 14.5588V14.6311C12.741 15.1568 12.8306 15.6256 12.9719 16.0324C13.1874 16.6442 13.52 17.1131 13.8406 17.4578C14.1595 17.8025 14.4715 18.0283 14.6438 18.1489C15.3454 18.6384 16.1537 18.9952 17.0035 19.2985C17.8532 19.6018 19.0977 19.9672 19.9733 20.2154C20.8971 20.4774 21.8227 20.7342 22.6776 21.041C23.5343 21.3461 24.3168 21.696 24.9528 22.1424L24.9114 22.1148L24.9528 22.1424C25.3768 22.4405 25.7336 22.7801 26.0042 23.1782L26.0249 23.2058L26.0059 23.1782C26.3627 23.7004 26.5696 24.333 26.573 25.0948V25.1103V25.1792V25.1861C26.5713 25.8325 26.4024 26.434 26.0938 26.9683C25.7819 27.506 25.3303 27.98 24.7632 28.373C23.6325 29.1589 22.0433 29.6225 20.2301 29.6225C18.1704 29.6225 16.5312 29.052 15.2954 28.3954C14.6783 28.0662 14.163 27.7146 13.7458 27.3992C13.3787 27.1199 13.0926 26.8718 12.8771 26.6856L12.3376 27.4147C12.5462 27.5922 12.8358 27.8421 13.1995 28.1179C13.8682 28.6246 14.7869 29.2261 15.959 29.7018C17.1327 30.1775 18.5599 30.5257 20.2318 30.5257C22.1967 30.5239 23.9583 30.0293 25.2803 29.1141C25.9422 28.6556 26.4903 28.0886 26.8764 27.4198C27.2607 26.758 27.4762 26.0014 27.4762 25.1982H27.4779V25.1844V25.181V25.1V25.0965V25.0913V25.0862L27.4727 25.0827Z" fill="#F04B37"/>
<path d="M38.9934 5.59808L39.3864 6.14617C42.2216 10.0948 43.7211 14.7398 43.7211 19.5812C43.7211 24.5915 42.1268 29.3692 39.1089 33.3971L38.6935 33.9504H96.87V5.59808H38.9934ZM63.4436 24.0176C63.4436 26.9269 61.0203 28.8177 57.6491 28.8177C54.9586 28.8177 52.7525 27.9214 50.7153 26.1031L51.9028 24.6967C53.6729 26.2961 55.3688 27.0976 57.7215 27.0976C60 27.0976 61.5029 25.8859 61.5029 24.2124V24.1641C61.5029 22.5888 60.6549 21.6908 57.0906 20.9393C53.1885 20.0914 51.3943 18.8297 51.3943 16.0428V15.9945C51.3943 13.3282 53.7452 11.3633 56.97 11.3633C59.4433 11.3633 61.2116 12.0665 62.9335 13.4488L61.8183 14.9276C60.243 13.6419 58.6677 13.0852 56.9217 13.0852C54.7156 13.0852 53.3092 14.2968 53.3092 15.8256V15.8738C53.3092 17.4733 54.1813 18.3713 57.9162 19.171C61.6977 19.9948 63.4436 21.3771 63.4436 23.9711V24.0176ZM69.0675 28.5746H67.2009V16.041H69.0675V28.5746ZM69.2123 13.3023H67.0786V11.241H69.2123V13.3023ZM90.2792 20.0896C90.2792 24.7691 86.7632 28.8659 81.5994 28.8659C76.4357 28.8659 72.9696 24.8173 72.9696 20.1379V20.0896C72.9696 15.4102 76.484 11.3134 81.6494 11.3134C86.8131 11.3134 90.2809 15.362 90.2809 20.0414V20.0896H90.2792Z" fill="#F04B37"/>
<path d="M81.5995 13.0834C77.7198 13.0834 74.9569 16.1858 74.9569 20.0414V20.0896C74.9569 23.9452 77.7697 27.0958 81.6477 27.0958C85.5274 27.0958 88.2903 23.9935 88.2903 20.1379V20.0896C88.2903 16.2358 85.4774 13.0834 81.5995 13.0834Z" fill="#F04B37"/>
</svg>
