<svg width="27" height="27" viewBox="0 0 27 27" fill="none" xmlns="http://www.w3.org/2000/svg">
<circle cx="13.5" cy="13.5" r="13.5" fill="#61177B"/>
<path d="M13.1702 13.824V12.432L15.9062 10.68V10.536H11.1542V9.6H16.7702V11.136L14.0342 12.888V13.032H14.5142C14.8342 13.032 15.1422 13.084 15.4382 13.188C15.7342 13.292 15.9942 13.444 16.2182 13.644C16.4502 13.844 16.6342 14.092 16.7702 14.388C16.9142 14.676 16.9862 15.012 16.9862 15.396V15.612C16.9862 15.972 16.9142 16.308 16.7702 16.62C16.6262 16.932 16.4262 17.204 16.1702 17.436C15.9142 17.66 15.6102 17.84 15.2582 17.976C14.9142 18.104 14.5382 18.168 14.1302 18.168C13.6582 18.168 13.2342 18.096 12.8582 17.952C12.4822 17.808 12.1622 17.612 11.8982 17.364C11.6342 17.108 11.4302 16.812 11.2862 16.476C11.1502 16.132 11.0822 15.768 11.0822 15.384V14.736H12.0902V15.312C12.0902 15.616 12.1382 15.888 12.2342 16.128C12.3382 16.36 12.4782 16.56 12.6542 16.728C12.8382 16.888 13.0542 17.012 13.3022 17.1C13.5502 17.188 13.8182 17.232 14.1062 17.232C14.3702 17.232 14.6142 17.188 14.8382 17.1C15.0702 17.012 15.2702 16.892 15.4382 16.74C15.6062 16.58 15.7382 16.396 15.8342 16.188C15.9302 15.972 15.9782 15.744 15.9782 15.504V15.432C15.9782 14.928 15.8182 14.536 15.4982 14.256C15.1782 13.968 14.7782 13.824 14.2982 13.824H13.1702Z" fill="white"/>
</svg>
