<svg width="31" height="31" viewBox="0 0 31 31" fill="none" xmlns="http://www.w3.org/2000/svg">
<circle cx="15.5" cy="15.5" r="15.5" fill="#F1F3FF"/>
<g clip-path="url(#clip0)">
<path d="M12.8944 22.6155C12.6552 22.6155 12.4258 22.5204 12.2567 22.3513L7.74703 17.8416C7.66089 17.7584 7.59218 17.6588 7.54491 17.5488C7.49764 17.4388 7.47275 17.3204 7.47171 17.2007C7.47067 17.0809 7.49349 16.9621 7.53884 16.8513C7.58419 16.7404 7.65117 16.6397 7.73585 16.555C7.82054 16.4704 7.92124 16.4034 8.03209 16.358C8.14293 16.3127 8.2617 16.2899 8.38146 16.2909C8.50122 16.2919 8.61957 16.3168 8.72961 16.3641C8.83965 16.4114 8.93917 16.4801 9.02237 16.5662L12.7681 20.3111L20.2705 9.47518C20.3365 9.37473 20.422 9.28852 20.5219 9.22159C20.6218 9.15467 20.7341 9.1084 20.8521 9.08549C20.9701 9.06258 21.0916 9.06351 21.2092 9.0882C21.3269 9.1129 21.4384 9.16088 21.5373 9.22931C21.6362 9.29774 21.7203 9.38525 21.7849 9.48668C21.8494 9.58812 21.8931 9.70144 21.9132 9.81997C21.9333 9.93851 21.9295 10.0599 21.902 10.1769C21.8746 10.294 21.824 10.4044 21.7533 10.5016L13.6358 22.2268C13.561 22.3361 13.4631 22.4276 13.349 22.4948C13.2349 22.5619 13.1074 22.6032 12.9756 22.6155C12.9485 22.6155 12.9215 22.6155 12.8944 22.6155Z" fill="#161822"/>
</g>
<defs>
<clipPath id="clip0">
<rect width="14.431" height="14.431" fill="white" transform="translate(7.48267 9.08643)"/>
</clipPath>
</defs>
</svg>
