<svg width="27" height="27" viewBox="0 0 27 27" fill="none" xmlns="http://www.w3.org/2000/svg">
<circle cx="13.5" cy="13.5" r="13.5" fill="#61177B"/>
<path d="M16.8542 17.064V18H11.1662V16.56C11.1662 16.176 11.2302 15.844 11.3582 15.564C11.4862 15.276 11.6662 15.032 11.8982 14.832C12.1382 14.624 12.4262 14.452 12.7622 14.316C13.0982 14.18 13.4782 14.064 13.9022 13.968C14.6142 13.808 15.1262 13.58 15.4382 13.284C15.7582 12.988 15.9182 12.624 15.9182 12.192V12.12C15.9182 11.904 15.8822 11.692 15.8102 11.484C15.7382 11.276 15.6262 11.088 15.4742 10.92C15.3222 10.752 15.1262 10.62 14.8862 10.524C14.6542 10.42 14.3742 10.368 14.0462 10.368C13.4302 10.368 12.9502 10.556 12.6062 10.932C12.2702 11.308 12.1022 11.808 12.1022 12.432V12.96H11.0942V12.36C11.0942 11.976 11.1582 11.608 11.2862 11.256C11.4142 10.904 11.6022 10.592 11.8502 10.32C12.0982 10.048 12.4062 9.832 12.7742 9.672C13.1422 9.512 13.5662 9.432 14.0462 9.432C14.5342 9.432 14.9582 9.508 15.3182 9.66C15.6782 9.804 15.9782 10 16.2182 10.248C16.4582 10.488 16.6342 10.764 16.7462 11.076C16.8662 11.38 16.9262 11.692 16.9262 12.012V12.228C16.9262 12.868 16.7262 13.416 16.3262 13.872C15.9262 14.32 15.2862 14.64 14.4062 14.832C13.6382 15 13.0742 15.224 12.7142 15.504C12.3542 15.776 12.1742 16.176 12.1742 16.704V17.064H16.8542Z" fill="white"/>
</svg>
