<svg width="324" height="204" viewBox="0 0 324 204" fill="none" xmlns="http://www.w3.org/2000/svg">
<rect y="25" width="324" height="35" rx="5" fill="#F1F3FF"/>
<path d="M19.228 46.064V39.044H19.084L17.704 42.2H16.708V42.128L18.28 38.6H20.236V46.064H22.612V47H16.852V46.064H19.228ZM28.7837 41.048C28.7837 40.528 28.6237 40.112 28.3037 39.8C27.9837 39.48 27.5397 39.32 26.9717 39.32C26.6997 39.32 26.4477 39.368 26.2157 39.464C25.9917 39.56 25.7957 39.7 25.6277 39.884C25.4677 40.06 25.3397 40.272 25.2437 40.52C25.1557 40.768 25.1117 41.04 25.1117 41.336V42.584H25.2557C25.4477 42.232 25.7197 41.956 26.0717 41.756C26.4317 41.556 26.8317 41.456 27.2717 41.456C27.6557 41.456 28.0117 41.52 28.3397 41.648C28.6677 41.768 28.9477 41.948 29.1797 42.188C29.4197 42.428 29.6037 42.72 29.7317 43.064C29.8677 43.4 29.9357 43.784 29.9357 44.216V44.36C29.9357 44.776 29.8597 45.156 29.7077 45.5C29.5637 45.844 29.3597 46.14 29.0957 46.388C28.8397 46.636 28.5317 46.828 28.1717 46.964C27.8197 47.1 27.4357 47.168 27.0197 47.168C26.6037 47.168 26.2157 47.1 25.8557 46.964C25.5037 46.828 25.1957 46.64 24.9317 46.4C24.6757 46.152 24.4717 45.86 24.3197 45.524C24.1757 45.18 24.1037 44.804 24.1037 44.396V41.336C24.1037 40.896 24.1797 40.496 24.3317 40.136C24.4837 39.776 24.6917 39.472 24.9557 39.224C25.2197 38.968 25.5237 38.772 25.8677 38.636C26.2197 38.5 26.5957 38.432 26.9957 38.432C27.3957 38.432 27.7677 38.492 28.1117 38.612C28.4557 38.732 28.7517 38.908 28.9997 39.14C29.2477 39.364 29.4397 39.64 29.5757 39.968C29.7197 40.288 29.7917 40.648 29.7917 41.048H28.7837ZM27.0197 46.28C27.3077 46.28 27.5677 46.236 27.7997 46.148C28.0397 46.052 28.2437 45.92 28.4117 45.752C28.5797 45.584 28.7077 45.384 28.7957 45.152C28.8837 44.92 28.9277 44.664 28.9277 44.384V44.24C28.9277 43.96 28.8797 43.704 28.7837 43.472C28.6877 43.24 28.5557 43.04 28.3877 42.872C28.2197 42.704 28.0157 42.576 27.7757 42.488C27.5437 42.392 27.2917 42.344 27.0197 42.344C26.7477 42.344 26.4957 42.392 26.2637 42.488C26.0317 42.584 25.8277 42.716 25.6517 42.884C25.4837 43.052 25.3517 43.248 25.2557 43.472C25.1597 43.696 25.1117 43.936 25.1117 44.192V44.42C25.1117 44.684 25.1557 44.932 25.2437 45.164C25.3317 45.388 25.4597 45.584 25.6277 45.752C25.7957 45.92 25.9957 46.052 26.2277 46.148C26.4677 46.236 26.7317 46.28 27.0197 46.28ZM40.323 42.584C40.323 42.872 40.443 43.092 40.683 43.244C40.931 43.396 41.379 43.496 42.027 43.544C42.723 43.6 43.251 43.768 43.611 44.048C43.979 44.32 44.163 44.72 44.163 45.248V45.32C44.163 45.608 44.103 45.868 43.983 46.1C43.871 46.324 43.711 46.516 43.503 46.676C43.303 46.836 43.055 46.956 42.759 47.036C42.471 47.124 42.155 47.168 41.811 47.168C41.347 47.168 40.947 47.108 40.611 46.988C40.283 46.86 40.007 46.696 39.783 46.496C39.567 46.288 39.403 46.056 39.291 45.8C39.179 45.536 39.115 45.272 39.099 45.008L39.987 44.792C40.027 45.248 40.203 45.616 40.515 45.896C40.827 46.168 41.243 46.304 41.763 46.304C42.203 46.304 42.555 46.22 42.819 46.052C43.091 45.876 43.227 45.632 43.227 45.32C43.227 44.984 43.095 44.744 42.831 44.6C42.567 44.456 42.139 44.364 41.547 44.324C40.859 44.276 40.331 44.116 39.963 43.844C39.595 43.572 39.411 43.176 39.411 42.656V42.584C39.411 42.304 39.471 42.06 39.591 41.852C39.711 41.636 39.871 41.456 40.071 41.312C40.279 41.168 40.511 41.06 40.767 40.988C41.023 40.916 41.291 40.88 41.571 40.88C41.963 40.88 42.307 40.936 42.603 41.048C42.899 41.152 43.147 41.292 43.347 41.468C43.547 41.636 43.699 41.832 43.803 42.056C43.915 42.28 43.987 42.504 44.019 42.728L43.131 42.944C43.091 42.56 42.935 42.26 42.663 42.044C42.399 41.828 42.051 41.72 41.619 41.72C41.451 41.72 41.287 41.74 41.127 41.78C40.975 41.812 40.839 41.864 40.719 41.936C40.599 42.008 40.503 42.1 40.431 42.212C40.359 42.316 40.323 42.44 40.323 42.584ZM48.2826 39.272C48.2826 39.04 48.3626 38.844 48.5226 38.684C48.6906 38.516 48.8906 38.432 49.1226 38.432C49.3546 38.432 49.5506 38.516 49.7106 38.684C49.8786 38.844 49.9626 39.04 49.9626 39.272C49.9626 39.504 49.8786 39.704 49.7106 39.872C49.5506 40.032 49.3546 40.112 49.1226 40.112C48.8906 40.112 48.6906 40.032 48.5226 39.872C48.3626 39.704 48.2826 39.504 48.2826 39.272ZM46.5786 46.136H48.6666V41.912H46.7946V41.048H49.6026V46.136H51.5466V47H46.5786V46.136ZM53.7223 41.048H55.5583V39.536C55.5583 39.264 55.6423 39.04 55.8103 38.864C55.9863 38.688 56.2103 38.6 56.4823 38.6H58.8343V39.464H56.8183C56.6023 39.464 56.4943 39.584 56.4943 39.824V41.048H58.9783V41.912H56.4943V47H55.5583V41.912H53.7223V41.048ZM60.7939 41.048H62.9539V41.84H63.0979C63.2499 41.512 63.4659 41.272 63.7459 41.12C64.0259 40.96 64.3459 40.88 64.7059 40.88C65.3059 40.88 65.7899 41.076 66.1579 41.468C66.5259 41.86 66.7219 42.432 66.7459 43.184L65.7619 43.328C65.7619 42.776 65.6299 42.38 65.3659 42.14C65.1019 41.892 64.7779 41.768 64.3939 41.768C64.1459 41.768 63.9299 41.816 63.7459 41.912C63.5699 42.008 63.4219 42.14 63.3019 42.308C63.1819 42.476 63.0939 42.672 63.0379 42.896C62.9819 43.12 62.9539 43.36 62.9539 43.616V46.136H64.4659V47H60.6499V46.136H62.0179V41.912H60.7939V41.048ZM69.1616 44.312C69.1856 44.904 69.3696 45.38 69.7136 45.74C70.0576 46.1 70.5376 46.28 71.1536 46.28C71.4336 46.28 71.6776 46.248 71.8856 46.184C72.0936 46.12 72.2696 46.032 72.4136 45.92C72.5656 45.808 72.6856 45.68 72.7736 45.536C72.8696 45.384 72.9456 45.224 73.0016 45.056L73.8896 45.296C73.7216 45.848 73.4096 46.3 72.9536 46.652C72.5056 46.996 71.8976 47.168 71.1296 47.168C70.7056 47.168 70.3136 47.096 69.9536 46.952C69.6016 46.8 69.2976 46.588 69.0416 46.316C68.7856 46.044 68.5856 45.72 68.4416 45.344C68.2976 44.968 68.2256 44.552 68.2256 44.096V43.808C68.2256 43.392 68.2976 43.004 68.4416 42.644C68.5936 42.284 68.8016 41.976 69.0656 41.72C69.3296 41.456 69.6376 41.252 69.9896 41.108C70.3496 40.956 70.7376 40.88 71.1536 40.88C71.6416 40.88 72.0616 40.972 72.4136 41.156C72.7736 41.332 73.0656 41.552 73.2896 41.816C73.5216 42.08 73.6896 42.368 73.7936 42.68C73.9056 42.992 73.9616 43.28 73.9616 43.544V44.312H69.1616ZM71.1536 41.768C70.8896 41.768 70.6416 41.812 70.4096 41.9C70.1856 41.98 69.9856 42.096 69.8096 42.248C69.6416 42.4 69.5016 42.58 69.3896 42.788C69.2856 42.988 69.2176 43.208 69.1856 43.448H73.0256C73.0096 43.192 72.9456 42.96 72.8336 42.752C72.7296 42.544 72.5896 42.368 72.4136 42.224C72.2456 42.08 72.0496 41.968 71.8256 41.888C71.6096 41.808 71.3856 41.768 71.1536 41.768Z" fill="#ACAEBB"/>
<path d="M9.344 13L4.512 7.4L8.96 2.328H7.296L2.576 7.848V2.328H1.248V13H2.576V9.416L3.648 8.2L7.696 13H9.344ZM13.6385 13.192C15.9905 13.192 17.4625 11.368 17.4625 9.128C17.4625 6.888 15.9905 5.08 13.6385 5.08C11.2865 5.08 9.8145 6.888 9.8145 9.128C9.8145 11.368 11.2865 13.192 13.6385 13.192ZM13.6385 12.12C11.9905 12.12 11.0625 10.712 11.0625 9.128C11.0625 7.56 11.9905 6.152 13.6385 6.152C15.2865 6.152 16.1985 7.56 16.1985 9.128C16.1985 10.712 15.2865 12.12 13.6385 12.12ZM20.6188 13V7.528C20.9708 6.904 21.9788 6.296 22.7148 6.296C22.9068 6.296 23.0508 6.312 23.1948 6.344V5.112C22.1388 5.112 21.2428 5.704 20.6188 6.52V5.272H19.4188V13H20.6188ZM26.652 13.192C27.356 13.192 27.788 12.984 28.092 12.696L27.74 11.8C27.58 11.976 27.26 12.12 26.924 12.12C26.396 12.12 26.14 11.704 26.14 11.128V6.328H27.708V5.272H26.14V3.16H24.94V5.272H23.66V6.328H24.94V11.384C24.94 12.536 25.516 13.192 26.652 13.192ZM35.8191 13V7.576C35.8191 5.896 34.9711 5.08 33.3551 5.08C32.2031 5.08 31.1471 5.752 30.6031 6.392V5.272H29.4031V13H30.6031V7.352C31.0511 6.728 31.9471 6.152 32.8911 6.152C33.9311 6.152 34.6191 6.584 34.6191 7.944V13H35.8191ZM44.6316 13V5.272H43.4316V10.952C42.9836 11.576 42.0876 12.12 41.1436 12.12C40.1036 12.12 39.4156 11.72 39.4156 10.36V5.272H38.2156V10.728C38.2156 12.408 39.0636 13.192 40.6796 13.192C41.8316 13.192 42.8396 12.584 43.4316 11.912V13H44.6316ZM57.5561 13V7.416C57.5561 5.864 56.8041 5.08 55.3961 5.08C54.2761 5.08 53.2361 5.816 52.8041 6.52C52.5801 5.72 51.9081 5.08 50.7241 5.08C49.5881 5.08 48.5481 5.896 48.2281 6.392V5.272H47.0281V13H48.2281V7.352C48.6441 6.728 49.4761 6.152 50.2601 6.152C51.2681 6.152 51.6841 6.776 51.6841 7.752V13H52.8841V7.336C53.2841 6.728 54.1321 6.152 54.9321 6.152C55.9241 6.152 56.3561 6.776 56.3561 7.752V13H57.5561ZM70.478 13V7.416C70.478 5.864 69.726 5.08 68.318 5.08C67.198 5.08 66.158 5.816 65.726 6.52C65.502 5.72 64.83 5.08 63.646 5.08C62.51 5.08 61.47 5.896 61.15 6.392V5.272H59.95V13H61.15V7.352C61.566 6.728 62.398 6.152 63.182 6.152C64.19 6.152 64.606 6.776 64.606 7.752V13H65.806V7.336C66.206 6.728 67.054 6.152 67.854 6.152C68.846 6.152 69.278 6.776 69.278 7.752V13H70.478ZM76.3599 13.192C77.6239 13.192 78.6639 12.776 79.4319 12.008L78.8559 11.224C78.2479 11.848 77.3519 12.2 76.4719 12.2C74.8079 12.2 73.7839 10.984 73.6879 9.528H79.9439V9.224C79.9439 6.904 78.5679 5.08 76.2319 5.08C74.0239 5.08 72.4239 6.888 72.4239 9.128C72.4239 11.544 74.0719 13.192 76.3599 13.192ZM78.7599 8.648H73.6879C73.7519 7.464 74.5679 6.072 76.2159 6.072C77.9759 6.072 78.7439 7.496 78.7599 8.648ZM83.0875 13V7.528C83.4395 6.904 84.4475 6.296 85.1835 6.296C85.3755 6.296 85.5195 6.312 85.6635 6.344V5.112C84.6075 5.112 83.7115 5.704 83.0875 6.52V5.272H81.8875V13H83.0875Z" fill="#2C0A38"/>
<rect x="180" y="101" width="144" height="35" rx="5" fill="#F1F3FF"/>
<path d="M198.844 118.824V117.432L201.58 115.68V115.536H196.828V114.6H202.444V116.136L199.708 117.888V118.032H200.188C200.508 118.032 200.816 118.084 201.112 118.188C201.408 118.292 201.668 118.444 201.892 118.644C202.124 118.844 202.308 119.092 202.444 119.388C202.588 119.676 202.66 120.012 202.66 120.396V120.612C202.66 120.972 202.588 121.308 202.444 121.62C202.3 121.932 202.1 122.204 201.844 122.436C201.588 122.66 201.284 122.84 200.932 122.976C200.588 123.104 200.212 123.168 199.804 123.168C199.332 123.168 198.908 123.096 198.532 122.952C198.156 122.808 197.836 122.612 197.572 122.364C197.308 122.108 197.104 121.812 196.96 121.476C196.824 121.132 196.756 120.768 196.756 120.384V119.736H197.764V120.312C197.764 120.616 197.812 120.888 197.908 121.128C198.012 121.36 198.152 121.56 198.328 121.728C198.512 121.888 198.728 122.012 198.976 122.1C199.224 122.188 199.492 122.232 199.78 122.232C200.044 122.232 200.288 122.188 200.512 122.1C200.744 122.012 200.944 121.892 201.112 121.74C201.28 121.58 201.412 121.396 201.508 121.188C201.604 120.972 201.652 120.744 201.652 120.504V120.432C201.652 119.928 201.492 119.536 201.172 119.256C200.852 118.968 200.452 118.824 199.972 118.824H198.844ZM212.975 118.584C212.975 118.872 213.095 119.092 213.335 119.244C213.583 119.396 214.031 119.496 214.679 119.544C215.375 119.6 215.903 119.768 216.263 120.048C216.631 120.32 216.815 120.72 216.815 121.248V121.32C216.815 121.608 216.755 121.868 216.635 122.1C216.523 122.324 216.363 122.516 216.155 122.676C215.955 122.836 215.707 122.956 215.411 123.036C215.123 123.124 214.807 123.168 214.463 123.168C213.999 123.168 213.599 123.108 213.263 122.988C212.935 122.86 212.659 122.696 212.435 122.496C212.219 122.288 212.055 122.056 211.943 121.8C211.831 121.536 211.767 121.272 211.751 121.008L212.639 120.792C212.679 121.248 212.855 121.616 213.167 121.896C213.479 122.168 213.895 122.304 214.415 122.304C214.855 122.304 215.207 122.22 215.471 122.052C215.743 121.876 215.879 121.632 215.879 121.32C215.879 120.984 215.747 120.744 215.483 120.6C215.219 120.456 214.791 120.364 214.199 120.324C213.511 120.276 212.983 120.116 212.615 119.844C212.247 119.572 212.063 119.176 212.063 118.656V118.584C212.063 118.304 212.123 118.06 212.243 117.852C212.363 117.636 212.523 117.456 212.723 117.312C212.931 117.168 213.163 117.06 213.419 116.988C213.675 116.916 213.943 116.88 214.223 116.88C214.615 116.88 214.959 116.936 215.255 117.048C215.551 117.152 215.799 117.292 215.999 117.468C216.199 117.636 216.351 117.832 216.455 118.056C216.567 118.28 216.639 118.504 216.671 118.728L215.783 118.944C215.743 118.56 215.587 118.26 215.315 118.044C215.051 117.828 214.703 117.72 214.271 117.72C214.103 117.72 213.939 117.74 213.779 117.78C213.627 117.812 213.491 117.864 213.371 117.936C213.251 118.008 213.155 118.1 213.083 118.212C213.011 118.316 212.975 118.44 212.975 118.584ZM220.935 115.272C220.935 115.04 221.015 114.844 221.175 114.684C221.343 114.516 221.543 114.432 221.775 114.432C222.007 114.432 222.203 114.516 222.363 114.684C222.531 114.844 222.615 115.04 222.615 115.272C222.615 115.504 222.531 115.704 222.363 115.872C222.203 116.032 222.007 116.112 221.775 116.112C221.543 116.112 221.343 116.032 221.175 115.872C221.015 115.704 220.935 115.504 220.935 115.272ZM219.231 122.136H221.319V117.912H219.447V117.048H222.255V122.136H224.199V123H219.231V122.136ZM226.375 117.048H228.211V115.536C228.211 115.264 228.295 115.04 228.463 114.864C228.639 114.688 228.863 114.6 229.135 114.6H231.487V115.464H229.471C229.255 115.464 229.147 115.584 229.147 115.824V117.048H231.631V117.912H229.147V123H228.211V117.912H226.375V117.048ZM233.446 117.048H235.606V117.84H235.75C235.902 117.512 236.118 117.272 236.398 117.12C236.678 116.96 236.998 116.88 237.358 116.88C237.958 116.88 238.442 117.076 238.81 117.468C239.178 117.86 239.374 118.432 239.398 119.184L238.414 119.328C238.414 118.776 238.282 118.38 238.018 118.14C237.754 117.892 237.43 117.768 237.046 117.768C236.798 117.768 236.582 117.816 236.398 117.912C236.222 118.008 236.074 118.14 235.954 118.308C235.834 118.476 235.746 118.672 235.69 118.896C235.634 119.12 235.606 119.36 235.606 119.616V122.136H237.118V123H233.302V122.136H234.67V117.912H233.446V117.048ZM241.814 120.312C241.838 120.904 242.022 121.38 242.366 121.74C242.71 122.1 243.19 122.28 243.806 122.28C244.086 122.28 244.33 122.248 244.538 122.184C244.746 122.12 244.922 122.032 245.066 121.92C245.218 121.808 245.338 121.68 245.426 121.536C245.522 121.384 245.598 121.224 245.654 121.056L246.542 121.296C246.374 121.848 246.062 122.3 245.606 122.652C245.158 122.996 244.55 123.168 243.782 123.168C243.358 123.168 242.966 123.096 242.606 122.952C242.254 122.8 241.95 122.588 241.694 122.316C241.438 122.044 241.238 121.72 241.094 121.344C240.95 120.968 240.878 120.552 240.878 120.096V119.808C240.878 119.392 240.95 119.004 241.094 118.644C241.246 118.284 241.454 117.976 241.718 117.72C241.982 117.456 242.29 117.252 242.642 117.108C243.002 116.956 243.39 116.88 243.806 116.88C244.294 116.88 244.714 116.972 245.066 117.156C245.426 117.332 245.718 117.552 245.942 117.816C246.174 118.08 246.342 118.368 246.446 118.68C246.558 118.992 246.614 119.28 246.614 119.544V120.312H241.814ZM243.806 117.768C243.542 117.768 243.294 117.812 243.062 117.9C242.838 117.98 242.638 118.096 242.462 118.248C242.294 118.4 242.154 118.58 242.042 118.788C241.938 118.988 241.87 119.208 241.838 119.448H245.678C245.662 119.192 245.598 118.96 245.486 118.752C245.382 118.544 245.242 118.368 245.066 118.224C244.898 118.08 244.702 117.968 244.478 117.888C244.262 117.808 244.038 117.768 243.806 117.768Z" fill="#ACAEBB"/>
<path d="M186.304 89.192C188.192 89.192 189.472 88.296 190.368 87.08L189.232 86.456C188.624 87.368 187.52 88.008 186.304 88.008C183.968 88.008 182.192 86.2 182.192 83.672C182.192 81.128 183.968 79.336 186.304 79.336C187.52 79.336 188.624 79.992 189.232 80.888L190.352 80.264C189.504 79.064 188.192 78.152 186.304 78.152C183.232 78.152 180.816 80.392 180.816 83.672C180.816 86.952 183.232 89.192 186.304 89.192ZM196.861 89L201.165 78.328H199.645L196.045 87.544L192.445 78.328H190.925L195.213 89H196.861ZM207.304 89.192C209.192 89.192 210.472 88.296 211.368 87.08L210.232 86.456C209.624 87.368 208.52 88.008 207.304 88.008C204.968 88.008 203.192 86.2 203.192 83.672C203.192 81.128 204.968 79.336 207.304 79.336C208.52 79.336 209.624 79.992 210.232 80.888L211.352 80.264C210.504 79.064 209.192 78.152 207.304 78.152C204.232 78.152 201.816 80.392 201.816 83.672C201.816 86.952 204.232 89.192 207.304 89.192Z" fill="#2C0A38"/>
<rect y="101" width="169" height="35" rx="5" fill="#F1F3FF"/>
<path d="M22.768 123H21.832V118.728C21.832 118.448 21.768 118.22 21.64 118.044C21.512 117.86 21.308 117.768 21.028 117.768C20.764 117.768 20.548 117.868 20.38 118.068C20.22 118.26 20.14 118.56 20.14 118.968V123H19.204V118.68C19.204 118.416 19.132 118.2 18.988 118.032C18.844 117.856 18.652 117.768 18.412 117.768C18.124 117.768 17.9 117.872 17.74 118.08C17.588 118.288 17.512 118.56 17.512 118.896V123H16.576V117.048H17.512V117.696H17.656C17.76 117.416 17.912 117.212 18.112 117.084C18.312 116.948 18.548 116.88 18.82 116.88C19.108 116.88 19.344 116.956 19.528 117.108C19.72 117.26 19.852 117.456 19.924 117.696H20.068C20.34 117.152 20.772 116.88 21.364 116.88C21.812 116.88 22.156 117.024 22.396 117.312C22.644 117.592 22.768 117.96 22.768 118.416V123ZM30.1157 123H29.1797V118.728C29.1797 118.448 29.1157 118.22 28.9877 118.044C28.8597 117.86 28.6557 117.768 28.3757 117.768C28.1117 117.768 27.8957 117.868 27.7277 118.068C27.5677 118.26 27.4877 118.56 27.4877 118.968V123H26.5517V118.68C26.5517 118.416 26.4797 118.2 26.3357 118.032C26.1917 117.856 25.9997 117.768 25.7597 117.768C25.4717 117.768 25.2477 117.872 25.0877 118.08C24.9357 118.288 24.8597 118.56 24.8597 118.896V123H23.9237V117.048H24.8597V117.696H25.0037C25.1077 117.416 25.2597 117.212 25.4597 117.084C25.6597 116.948 25.8957 116.88 26.1677 116.88C26.4557 116.88 26.6917 116.956 26.8757 117.108C27.0677 117.26 27.1997 117.456 27.2717 117.696H27.4157C27.6877 117.152 28.1197 116.88 28.7117 116.88C29.1597 116.88 29.5037 117.024 29.7437 117.312C29.9917 117.592 30.1157 117.96 30.1157 118.416V123ZM35.6993 113.328L36.5393 113.592L33.0473 124.272L32.1953 124.008L35.6993 113.328ZM43.407 121.992H43.263C43.071 122.392 42.803 122.688 42.459 122.88C42.123 123.072 41.767 123.168 41.391 123.168C40.999 123.168 40.635 123.104 40.299 122.976C39.963 122.84 39.667 122.644 39.411 122.388C39.163 122.124 38.967 121.804 38.823 121.428C38.679 121.052 38.607 120.616 38.607 120.12V119.928C38.607 119.44 38.679 119.008 38.823 118.632C38.967 118.256 39.163 117.94 39.411 117.684C39.667 117.42 39.963 117.22 40.299 117.084C40.635 116.948 40.991 116.88 41.367 116.88C41.775 116.88 42.143 116.972 42.471 117.156C42.807 117.332 43.071 117.608 43.263 117.984H43.407V117.048H44.343V121.776C44.343 122.016 44.451 122.136 44.667 122.136H44.967V123H44.331C44.059 123 43.835 122.912 43.659 122.736C43.491 122.56 43.407 122.336 43.407 122.064V121.992ZM41.487 122.28C41.767 122.28 42.023 122.228 42.255 122.124C42.495 122.02 42.699 121.872 42.867 121.68C43.035 121.488 43.167 121.26 43.263 120.996C43.359 120.724 43.407 120.424 43.407 120.096V119.952C43.407 119.632 43.359 119.34 43.263 119.076C43.167 118.804 43.031 118.572 42.855 118.38C42.687 118.188 42.483 118.04 42.243 117.936C42.011 117.824 41.759 117.768 41.487 117.768C41.207 117.768 40.951 117.82 40.719 117.924C40.487 118.028 40.283 118.176 40.107 118.368C39.939 118.552 39.807 118.78 39.711 119.052C39.615 119.316 39.567 119.608 39.567 119.928V120.12C39.567 120.8 39.743 121.332 40.095 121.716C40.455 122.092 40.919 122.28 41.487 122.28ZM40.155 114.936C40.155 114.592 40.271 114.304 40.503 114.072C40.743 113.832 41.035 113.712 41.379 113.712C41.723 113.712 42.011 113.832 42.243 114.072C42.483 114.304 42.603 114.592 42.603 114.936C42.603 115.28 42.483 115.572 42.243 115.812C42.011 116.044 41.723 116.16 41.379 116.16C41.035 116.16 40.743 116.044 40.503 115.812C40.271 115.572 40.155 115.28 40.155 114.936ZM40.875 114.936C40.875 115.08 40.923 115.2 41.019 115.296C41.115 115.392 41.235 115.44 41.379 115.44C41.523 115.44 41.643 115.392 41.739 115.296C41.835 115.2 41.883 115.08 41.883 114.936C41.883 114.792 41.835 114.672 41.739 114.576C41.643 114.48 41.523 114.432 41.379 114.432C41.235 114.432 41.115 114.48 41.019 114.576C40.923 114.672 40.875 114.792 40.875 114.936ZM50.7546 121.992H50.6106C50.4186 122.392 50.1506 122.688 49.8066 122.88C49.4706 123.072 49.1146 123.168 48.7386 123.168C48.3466 123.168 47.9826 123.104 47.6466 122.976C47.3106 122.84 47.0146 122.644 46.7586 122.388C46.5106 122.124 46.3146 121.804 46.1706 121.428C46.0266 121.052 45.9546 120.616 45.9546 120.12V119.928C45.9546 119.44 46.0266 119.008 46.1706 118.632C46.3146 118.256 46.5106 117.94 46.7586 117.684C47.0146 117.42 47.3106 117.22 47.6466 117.084C47.9826 116.948 48.3386 116.88 48.7146 116.88C49.1226 116.88 49.4906 116.972 49.8186 117.156C50.1546 117.332 50.4186 117.608 50.6106 117.984H50.7546V117.048H51.6906V121.776C51.6906 122.016 51.7986 122.136 52.0146 122.136H52.3146V123H51.6786C51.4066 123 51.1826 122.912 51.0066 122.736C50.8386 122.56 50.7546 122.336 50.7546 122.064V121.992ZM48.8346 122.28C49.1146 122.28 49.3706 122.228 49.6026 122.124C49.8426 122.02 50.0466 121.872 50.2146 121.68C50.3826 121.488 50.5146 121.26 50.6106 120.996C50.7066 120.724 50.7546 120.424 50.7546 120.096V119.952C50.7546 119.632 50.7066 119.34 50.6106 119.076C50.5146 118.804 50.3786 118.572 50.2026 118.38C50.0346 118.188 49.8306 118.04 49.5906 117.936C49.3586 117.824 49.1066 117.768 48.8346 117.768C48.5546 117.768 48.2986 117.82 48.0666 117.924C47.8346 118.028 47.6306 118.176 47.4546 118.368C47.2866 118.552 47.1546 118.78 47.0586 119.052C46.9626 119.316 46.9146 119.608 46.9146 119.928V120.12C46.9146 120.8 47.0906 121.332 47.4426 121.716C47.8026 122.092 48.2666 122.28 48.8346 122.28ZM47.5026 114.936C47.5026 114.592 47.6186 114.304 47.8506 114.072C48.0906 113.832 48.3826 113.712 48.7266 113.712C49.0706 113.712 49.3586 113.832 49.5906 114.072C49.8306 114.304 49.9506 114.592 49.9506 114.936C49.9506 115.28 49.8306 115.572 49.5906 115.812C49.3586 116.044 49.0706 116.16 48.7266 116.16C48.3826 116.16 48.0906 116.044 47.8506 115.812C47.6186 115.572 47.5026 115.28 47.5026 114.936ZM48.2226 114.936C48.2226 115.08 48.2706 115.2 48.3666 115.296C48.4626 115.392 48.5826 115.44 48.7266 115.44C48.8706 115.44 48.9906 115.392 49.0866 115.296C49.1826 115.2 49.2306 115.08 49.2306 114.936C49.2306 114.792 49.1826 114.672 49.0866 114.576C48.9906 114.48 48.8706 114.432 48.7266 114.432C48.5826 114.432 48.4626 114.48 48.3666 114.576C48.2706 114.672 48.2226 114.792 48.2226 114.936Z" fill="#ACAEBB"/>
<path d="M5.6 89.192C8.496 89.192 9.952 87.496 9.952 84.84V78.328H8.624V84.824C8.624 86.776 7.568 88.008 5.6 88.008C3.632 88.008 2.576 86.776 2.576 84.824V78.328H1.248V84.856C1.248 87.48 2.704 89.192 5.6 89.192ZM14.3551 89.192C15.0591 89.192 15.4911 88.984 15.7951 88.696L15.4431 87.8C15.2831 87.976 14.9631 88.12 14.6271 88.12C14.0991 88.12 13.8431 87.704 13.8431 87.128V82.328H15.4111V81.272H13.8431V79.16H12.6431V81.272H11.3631V82.328H12.6431V87.384C12.6431 88.536 13.2191 89.192 14.3551 89.192ZM18.3063 89V78.328H17.1063V89H18.3063ZM21.388 89L21.804 88.472C22.412 88.936 23.18 89.192 24.076 89.192C26.428 89.192 27.9 87.368 27.9 85.128C27.9 83.96 27.5 82.92 26.78 82.184L27.5 81.272H26.636L26.268 81.736C25.676 81.32 24.924 81.08 24.076 81.08C21.724 81.08 20.252 82.888 20.252 85.128C20.252 86.264 20.62 87.288 21.292 88.024L20.524 89H21.388ZM24.076 88.12C23.436 88.12 22.924 87.912 22.508 87.576L26.028 83.128C26.428 83.672 26.636 84.376 26.636 85.128C26.636 86.712 25.724 88.12 24.076 88.12ZM21.5 85.128C21.5 83.56 22.428 82.152 24.076 82.152C24.668 82.152 25.164 82.328 25.548 82.632L22.044 87.064C21.692 86.536 21.5 85.848 21.5 85.128ZM33.6643 89.192C35.6963 89.192 37.1042 87.624 37.1042 85.128C37.1042 82.616 35.6963 81.08 33.6643 81.08C32.5763 81.08 31.6163 81.64 31.0563 82.424V81.272H29.8563V91.944H31.0563V87.832C31.6803 88.696 32.6083 89.192 33.6643 89.192ZM33.3602 88.12C32.4163 88.12 31.4723 87.544 31.0563 86.872V83.384C31.4723 82.712 32.4163 82.152 33.3602 82.152C34.9123 82.152 35.8403 83.416 35.8403 85.128C35.8403 86.84 34.9123 88.12 33.3602 88.12ZM41.4605 89.192C43.4605 89.192 44.5005 88.152 44.5005 86.856C44.5005 83.848 39.7165 84.968 39.7165 83.272C39.7165 82.584 40.3725 82.056 41.4285 82.056C42.4205 82.056 43.2685 82.472 43.7325 83.032L44.2925 82.2C43.6685 81.576 42.7405 81.08 41.4285 81.08C39.5885 81.08 38.5485 82.104 38.5485 83.304C38.5485 86.168 43.3325 85.016 43.3325 86.888C43.3325 87.656 42.6925 88.216 41.5085 88.216C40.4525 88.216 39.4765 87.704 38.9645 87.112L38.3405 87.976C39.1245 88.808 40.1965 89.192 41.4605 89.192ZM53.25 89V78.328H52.05V82.44C51.426 81.592 50.482 81.08 49.442 81.08C47.41 81.08 46.002 82.68 46.002 85.144C46.002 87.656 47.426 89.192 49.442 89.192C50.53 89.192 51.474 88.632 52.05 87.848V89H53.25ZM49.73 88.12C48.178 88.12 47.25 86.856 47.25 85.144C47.25 83.432 48.178 82.152 49.73 82.152C50.69 82.152 51.618 82.728 52.05 83.4V86.904C51.618 87.576 50.69 88.12 49.73 88.12ZM61.6851 89V83.688C61.6851 81.816 60.3251 81.08 58.6931 81.08C57.4291 81.08 56.4371 81.496 55.6051 82.36L56.1651 83.192C56.8531 82.456 57.6051 82.12 58.5331 82.12C59.6531 82.12 60.4851 82.712 60.4851 83.752V85.144C59.8611 84.424 58.9811 84.088 57.9251 84.088C56.6131 84.088 55.2211 84.904 55.2211 86.632C55.2211 88.312 56.6131 89.192 57.9251 89.192C58.9651 89.192 59.8451 88.824 60.4851 88.12V89H61.6851ZM58.3571 88.328C57.2371 88.328 56.4531 87.624 56.4531 86.648C56.4531 85.656 57.2371 84.952 58.3571 84.952C59.2051 84.952 60.0211 85.272 60.4851 85.912V87.368C60.0211 88.008 59.2051 88.328 58.3571 88.328ZM66.0426 89.192C66.7466 89.192 67.1786 88.984 67.4826 88.696L67.1306 87.8C66.9706 87.976 66.6506 88.12 66.3146 88.12C65.7866 88.12 65.5306 87.704 65.5306 87.128V82.328H67.0986V81.272H65.5306V79.16H64.3306V81.272H63.0506V82.328H64.3306V87.384C64.3306 88.536 64.9066 89.192 66.0426 89.192ZM72.1698 89.192C74.5218 89.192 75.9938 87.368 75.9938 85.128C75.9938 82.888 74.5218 81.08 72.1698 81.08C69.8178 81.08 68.3458 82.888 68.3458 85.128C68.3458 87.368 69.8178 89.192 72.1698 89.192ZM72.1698 88.12C70.5218 88.12 69.5938 86.712 69.5938 85.128C69.5938 83.56 70.5218 82.152 72.1698 82.152C73.8178 82.152 74.7298 83.56 74.7298 85.128C74.7298 86.712 73.8178 88.12 72.1698 88.12Z" fill="#2C0A38"/>
<g clip-path="url(#clip0)">
<path d="M146.125 117.125H156.625" stroke="#ACAEBB" stroke-miterlimit="10" stroke-linecap="round" stroke-linejoin="round"/>
<path d="M155.875 114.875H146.875C146.461 114.875 146.125 115.211 146.125 115.625V123.875C146.125 124.289 146.461 124.625 146.875 124.625H155.875C156.289 124.625 156.625 124.289 156.625 123.875V115.625C156.625 115.211 156.289 114.875 155.875 114.875Z" stroke="#ACAEBB" stroke-miterlimit="10" stroke-linecap="round" stroke-linejoin="round"/>
<path d="M148.375 113.375V114.875" stroke="#ACAEBB" stroke-miterlimit="10" stroke-linecap="round" stroke-linejoin="round"/>
<path d="M154.375 113.375V114.875" stroke="#ACAEBB" stroke-miterlimit="10" stroke-linecap="round" stroke-linejoin="round"/>
<path d="M151.375 113.375V114.875" stroke="#ACAEBB" stroke-miterlimit="10" stroke-linecap="round" stroke-linejoin="round"/>
</g>
<path d="M0 186C0 176.059 8.05887 168 18 168H197C206.941 168 215 176.059 215 186V186C215 195.941 206.941 204 197 204H18C8.05887 204 0 195.941 0 186V186Z" fill="#47E17A"/>
<path d="M25.1386 190.752H26.0986V182.048H25.1386V180.8H29.6666C30.1999 180.8 30.6692 180.875 31.0746 181.024C31.4906 181.173 31.8372 181.376 32.1146 181.632C32.4026 181.888 32.6159 182.197 32.7546 182.56C32.9039 182.912 32.9786 183.296 32.9786 183.712V183.904C32.9786 184.213 32.9306 184.496 32.8346 184.752C32.7386 185.008 32.6052 185.237 32.4346 185.44C32.2639 185.643 32.0612 185.819 31.8266 185.968C31.6026 186.107 31.3572 186.213 31.0906 186.288V186.48C31.6239 186.629 32.0719 186.917 32.4346 187.344C32.7972 187.76 32.9786 188.272 32.9786 188.88V189.072C32.9786 189.488 32.9039 189.877 32.7546 190.24C32.6159 190.592 32.4026 190.901 32.1146 191.168C31.8372 191.424 31.4906 191.627 31.0746 191.776C30.6692 191.925 30.1999 192 29.6666 192H25.1386V190.752ZM27.4426 190.752H29.5706C30.1999 190.752 30.7119 190.597 31.1066 190.288C31.5012 189.968 31.6986 189.531 31.6986 188.976V188.88C31.6986 188.304 31.5119 187.851 31.1386 187.52C30.7652 187.179 30.2586 187.008 29.6186 187.008H27.4426V190.752ZM27.4426 185.76H29.6186C30.2586 185.76 30.7652 185.595 31.1386 185.264C31.5119 184.933 31.6986 184.48 31.6986 183.904V183.808C31.6986 183.264 31.5012 182.837 31.1066 182.528C30.7119 182.208 30.1999 182.048 29.5706 182.048H27.4426V185.76ZM36.3274 188.416C36.3594 189.205 36.6048 189.84 37.0634 190.32C37.5221 190.8 38.1621 191.04 38.9834 191.04C39.3568 191.04 39.6821 190.997 39.9594 190.912C40.2368 190.827 40.4714 190.709 40.6634 190.56C40.8661 190.411 41.0261 190.24 41.1434 190.048C41.2714 189.845 41.3728 189.632 41.4474 189.408L42.6314 189.728C42.4074 190.464 41.9914 191.067 41.3834 191.536C40.7861 191.995 39.9754 192.224 38.9514 192.224C38.3861 192.224 37.8634 192.128 37.3834 191.936C36.9141 191.733 36.5088 191.451 36.1674 191.088C35.8261 190.725 35.5594 190.293 35.3674 189.792C35.1754 189.291 35.0794 188.736 35.0794 188.128V187.744C35.0794 187.189 35.1754 186.672 35.3674 186.192C35.5701 185.712 35.8474 185.301 36.1994 184.96C36.5514 184.608 36.9621 184.336 37.4314 184.144C37.9114 183.941 38.4288 183.84 38.9834 183.84C39.6341 183.84 40.1941 183.963 40.6634 184.208C41.1434 184.443 41.5328 184.736 41.8314 185.088C42.1408 185.44 42.3648 185.824 42.5034 186.24C42.6528 186.656 42.7274 187.04 42.7274 187.392V188.416H36.3274ZM38.9834 185.024C38.6314 185.024 38.3008 185.083 37.9914 185.2C37.6928 185.307 37.4261 185.461 37.1914 185.664C36.9674 185.867 36.7808 186.107 36.6314 186.384C36.4928 186.651 36.4021 186.944 36.3594 187.264H41.4794C41.4581 186.923 41.3728 186.613 41.2234 186.336C41.0848 186.059 40.8981 185.824 40.6634 185.632C40.4394 185.44 40.1781 185.291 39.8794 185.184C39.5914 185.077 39.2928 185.024 38.9834 185.024ZM44.9403 184.064H47.4363V180.8H48.6843V184.064H51.7563V185.216H48.6843V190.368C48.6843 190.688 48.8283 190.848 49.1163 190.848H51.3723V192H48.6683C48.3056 192 48.007 191.883 47.7723 191.648C47.5483 191.413 47.4363 191.115 47.4363 190.752V185.216H44.9403V184.064ZM60.7692 190.656H60.5772C60.3212 191.189 59.9639 191.584 59.5052 191.84C59.0572 192.096 58.5825 192.224 58.0812 192.224C57.5585 192.224 57.0732 192.139 56.6252 191.968C56.1772 191.787 55.7825 191.525 55.4412 191.184C55.1105 190.832 54.8492 190.405 54.6572 189.904C54.4652 189.403 54.3692 188.821 54.3692 188.16V187.904C54.3692 187.253 54.4652 186.677 54.6572 186.176C54.8492 185.675 55.1105 185.253 55.4412 184.912C55.7825 184.56 56.1772 184.293 56.6252 184.112C57.0732 183.931 57.5479 183.84 58.0492 183.84C58.5932 183.84 59.0839 183.963 59.5212 184.208C59.9692 184.443 60.3212 184.811 60.5772 185.312H60.7692V184.064H62.0172V190.368C62.0172 190.688 62.1612 190.848 62.4492 190.848H62.8492V192H62.0012C61.6385 192 61.3399 191.883 61.1052 191.648C60.8812 191.413 60.7692 191.115 60.7692 190.752V190.656ZM58.2092 191.04C58.5825 191.04 58.9239 190.971 59.2332 190.832C59.5532 190.693 59.8252 190.496 60.0492 190.24C60.2732 189.984 60.4492 189.68 60.5772 189.328C60.7052 188.965 60.7692 188.565 60.7692 188.128V187.936C60.7692 187.509 60.7052 187.12 60.5772 186.768C60.4492 186.405 60.2679 186.096 60.0332 185.84C59.8092 185.584 59.5372 185.387 59.2172 185.248C58.9079 185.099 58.5719 185.024 58.2092 185.024C57.8359 185.024 57.4945 185.093 57.1852 185.232C56.8759 185.371 56.6039 185.568 56.3692 185.824C56.1452 186.069 55.9692 186.373 55.8412 186.736C55.7132 187.088 55.6492 187.477 55.6492 187.904V188.16C55.6492 189.067 55.8839 189.776 56.3532 190.288C56.8332 190.789 57.4519 191.04 58.2092 191.04ZM64.8061 190.848H67.6861V181.952H64.9021V180.8H68.9341V190.848H71.8141V192H64.8061V190.848ZM91.8878 188.128C91.8878 188.789 91.7758 189.376 91.5518 189.888C91.3385 190.389 91.0505 190.816 90.6878 191.168C90.3251 191.509 89.8985 191.771 89.4078 191.952C88.9278 192.133 88.4265 192.224 87.9038 192.224C87.3705 192.224 86.8638 192.133 86.3838 191.952C85.9038 191.771 85.4825 191.509 85.1198 191.168C84.7571 190.816 84.4638 190.389 84.2398 189.888C84.0265 189.376 83.9198 188.789 83.9198 188.128V187.936C83.9198 187.285 84.0265 186.709 84.2398 186.208C84.4638 185.696 84.7571 185.264 85.1198 184.912C85.4931 184.56 85.9198 184.293 86.3998 184.112C86.8798 183.931 87.3811 183.84 87.9038 183.84C88.4265 183.84 88.9278 183.931 89.4078 184.112C89.8878 184.293 90.3091 184.56 90.6718 184.912C91.0451 185.264 91.3385 185.696 91.5518 186.208C91.7758 186.709 91.8878 187.285 91.8878 187.936V188.128ZM87.9038 191.04C88.2878 191.04 88.6398 190.976 88.9598 190.848C89.2905 190.709 89.5785 190.512 89.8238 190.256C90.0691 190 90.2611 189.696 90.3998 189.344C90.5385 188.981 90.6078 188.576 90.6078 188.128V187.936C90.6078 187.509 90.5385 187.12 90.3998 186.768C90.2611 186.405 90.0691 186.096 89.8238 185.84C89.5785 185.584 89.2905 185.387 88.9598 185.248C88.6291 185.099 88.2771 185.024 87.9038 185.024C87.5305 185.024 87.1785 185.099 86.8478 185.248C86.5171 185.387 86.2291 185.584 85.9838 185.84C85.7385 186.096 85.5465 186.405 85.4078 186.768C85.2691 187.12 85.1998 187.509 85.1998 187.936V188.128C85.1998 188.576 85.2691 188.981 85.4078 189.344C85.5465 189.696 85.7385 190 85.9838 190.256C86.2291 190.512 86.5118 190.709 86.8318 190.848C87.1625 190.976 87.5198 191.04 87.9038 191.04ZM100.229 190.784H100.037C99.7807 191.264 99.4287 191.627 98.9807 191.872C98.5434 192.107 98.0634 192.224 97.5407 192.224C97.0074 192.224 96.506 192.133 96.0367 191.952C95.5674 191.771 95.1514 191.509 94.7887 191.168C94.4367 190.827 94.154 190.405 93.9407 189.904C93.738 189.392 93.6367 188.811 93.6367 188.16V187.904C93.6367 187.264 93.7434 186.693 93.9567 186.192C94.17 185.68 94.4527 185.253 94.8047 184.912C95.1567 184.56 95.5674 184.293 96.0367 184.112C96.506 183.931 96.9967 183.84 97.5087 183.84C98.0847 183.84 98.586 183.968 99.0127 184.224C99.45 184.469 99.7914 184.832 100.037 185.312H100.229V184.064H101.477V193.952C101.477 194.315 101.359 194.613 101.125 194.848C100.901 195.083 100.607 195.2 100.245 195.2H95.0767V194.048H99.7967C100.085 194.048 100.229 193.888 100.229 193.568V190.784ZM97.5727 191.04C97.946 191.04 98.2927 190.971 98.6127 190.832C98.9327 190.693 99.21 190.496 99.4447 190.24C99.69 189.984 99.882 189.68 100.021 189.328C100.159 188.965 100.229 188.565 100.229 188.128V187.936C100.229 187.509 100.159 187.12 100.021 186.768C99.882 186.405 99.69 186.096 99.4447 185.84C99.21 185.584 98.9274 185.387 98.5967 185.248C98.2767 185.099 97.9354 185.024 97.5727 185.024C97.1994 185.024 96.8474 185.093 96.5167 185.232C96.1967 185.371 95.914 185.568 95.6687 185.824C95.434 186.08 95.2474 186.384 95.1087 186.736C94.9807 187.088 94.9167 187.477 94.9167 187.904V188.16C94.9167 188.608 94.9807 189.008 95.1087 189.36C95.2474 189.712 95.434 190.016 95.6687 190.272C95.914 190.517 96.1967 190.709 96.5167 190.848C96.8367 190.976 97.1887 191.04 97.5727 191.04ZM113.71 184.064H116.158V182.048C116.158 181.685 116.27 181.387 116.494 181.152C116.729 180.917 117.028 180.8 117.39 180.8H120.526V181.952H117.838C117.55 181.952 117.406 182.112 117.406 182.432V184.064H120.718V185.216H117.406V192H116.158V185.216H113.71V184.064ZM131.075 188.128C131.075 188.789 130.963 189.376 130.739 189.888C130.526 190.389 130.238 190.816 129.875 191.168C129.513 191.509 129.086 191.771 128.595 191.952C128.115 192.133 127.614 192.224 127.091 192.224C126.558 192.224 126.051 192.133 125.571 191.952C125.091 191.771 124.67 191.509 124.307 191.168C123.945 190.816 123.651 190.389 123.427 189.888C123.214 189.376 123.107 188.789 123.107 188.128V187.936C123.107 187.285 123.214 186.709 123.427 186.208C123.651 185.696 123.945 185.264 124.307 184.912C124.681 184.56 125.107 184.293 125.587 184.112C126.067 183.931 126.569 183.84 127.091 183.84C127.614 183.84 128.115 183.931 128.595 184.112C129.075 184.293 129.497 184.56 129.859 184.912C130.233 185.264 130.526 185.696 130.739 186.208C130.963 186.709 131.075 187.285 131.075 187.936V188.128ZM127.091 191.04C127.475 191.04 127.827 190.976 128.147 190.848C128.478 190.709 128.766 190.512 129.011 190.256C129.257 190 129.449 189.696 129.587 189.344C129.726 188.981 129.795 188.576 129.795 188.128V187.936C129.795 187.509 129.726 187.12 129.587 186.768C129.449 186.405 129.257 186.096 129.011 185.84C128.766 185.584 128.478 185.387 128.147 185.248C127.817 185.099 127.465 185.024 127.091 185.024C126.718 185.024 126.366 185.099 126.035 185.248C125.705 185.387 125.417 185.584 125.171 185.84C124.926 186.096 124.734 186.405 124.595 186.768C124.457 187.12 124.387 187.509 124.387 187.936V188.128C124.387 188.576 124.457 188.981 124.595 189.344C124.734 189.696 124.926 190 125.171 190.256C125.417 190.512 125.699 190.709 126.019 190.848C126.35 190.976 126.707 191.04 127.091 191.04ZM132.936 184.064H135.816V185.12H136.008C136.211 184.683 136.499 184.363 136.872 184.16C137.246 183.947 137.672 183.84 138.152 183.84C138.952 183.84 139.598 184.101 140.088 184.624C140.579 185.147 140.84 185.909 140.872 186.912L139.56 187.104C139.56 186.368 139.384 185.84 139.032 185.52C138.68 185.189 138.248 185.024 137.736 185.024C137.406 185.024 137.118 185.088 136.872 185.216C136.638 185.344 136.44 185.52 136.28 185.744C136.12 185.968 136.003 186.229 135.928 186.528C135.854 186.827 135.816 187.147 135.816 187.488V190.848H137.832V192H132.744V190.848H134.568V185.216H132.936V184.064ZM142.909 184.064H145.405V180.8H146.653V184.064H149.725V185.216H146.653V190.368C146.653 190.688 146.797 190.848 147.085 190.848H149.341V192H146.637C146.274 192 145.976 191.883 145.741 191.648C145.517 191.413 145.405 191.115 145.405 190.752V185.216H142.909V184.064ZM154.626 186.112C154.626 186.496 154.786 186.789 155.106 186.992C155.437 187.195 156.034 187.328 156.898 187.392C157.826 187.467 158.53 187.691 159.01 188.064C159.501 188.427 159.746 188.96 159.746 189.664V189.76C159.746 190.144 159.666 190.491 159.506 190.8C159.357 191.099 159.143 191.355 158.866 191.568C158.599 191.781 158.269 191.941 157.874 192.048C157.49 192.165 157.069 192.224 156.61 192.224C155.991 192.224 155.458 192.144 155.01 191.984C154.573 191.813 154.205 191.595 153.906 191.328C153.618 191.051 153.399 190.741 153.25 190.4C153.101 190.048 153.015 189.696 152.994 189.344L154.178 189.056C154.231 189.664 154.466 190.155 154.882 190.528C155.298 190.891 155.853 191.072 156.546 191.072C157.133 191.072 157.602 190.96 157.954 190.736C158.317 190.501 158.498 190.176 158.498 189.76C158.498 189.312 158.322 188.992 157.97 188.8C157.618 188.608 157.047 188.485 156.258 188.432C155.341 188.368 154.637 188.155 154.146 187.792C153.655 187.429 153.41 186.901 153.41 186.208V186.112C153.41 185.739 153.49 185.413 153.65 185.136C153.81 184.848 154.023 184.608 154.29 184.416C154.567 184.224 154.877 184.08 155.218 183.984C155.559 183.888 155.917 183.84 156.29 183.84C156.813 183.84 157.271 183.915 157.666 184.064C158.061 184.203 158.391 184.389 158.658 184.624C158.925 184.848 159.127 185.109 159.266 185.408C159.415 185.707 159.511 186.005 159.554 186.304L158.37 186.592C158.317 186.08 158.109 185.68 157.746 185.392C157.394 185.104 156.93 184.96 156.354 184.96C156.13 184.96 155.911 184.987 155.698 185.04C155.495 185.083 155.314 185.152 155.154 185.248C154.994 185.344 154.866 185.467 154.77 185.616C154.674 185.755 154.626 185.92 154.626 186.112ZM163.687 188.416C163.719 189.205 163.964 189.84 164.423 190.32C164.881 190.8 165.521 191.04 166.343 191.04C166.716 191.04 167.041 190.997 167.319 190.912C167.596 190.827 167.831 190.709 168.023 190.56C168.225 190.411 168.385 190.24 168.503 190.048C168.631 189.845 168.732 189.632 168.807 189.408L169.991 189.728C169.767 190.464 169.351 191.067 168.743 191.536C168.145 191.995 167.335 192.224 166.311 192.224C165.745 192.224 165.223 192.128 164.743 191.936C164.273 191.733 163.868 191.451 163.527 191.088C163.185 190.725 162.919 190.293 162.727 189.792C162.535 189.291 162.439 188.736 162.439 188.128V187.744C162.439 187.189 162.535 186.672 162.727 186.192C162.929 185.712 163.207 185.301 163.559 184.96C163.911 184.608 164.321 184.336 164.791 184.144C165.271 183.941 165.788 183.84 166.343 183.84C166.993 183.84 167.553 183.963 168.023 184.208C168.503 184.443 168.892 184.736 169.191 185.088C169.5 185.44 169.724 185.824 169.863 186.24C170.012 186.656 170.087 187.04 170.087 187.392V188.416H163.687ZM166.343 185.024C165.991 185.024 165.66 185.083 165.351 185.2C165.052 185.307 164.785 185.461 164.551 185.664C164.327 185.867 164.14 186.107 163.991 186.384C163.852 186.651 163.761 186.944 163.719 187.264H168.839C168.817 186.923 168.732 186.613 168.583 186.336C168.444 186.059 168.257 185.824 168.023 185.632C167.799 185.44 167.537 185.291 167.239 185.184C166.951 185.077 166.652 185.024 166.343 185.024ZM172.3 184.064H174.796V180.8H176.044V184.064H179.116V185.216H176.044V190.368C176.044 190.688 176.188 190.848 176.476 190.848H178.732V192H176.028C175.665 192 175.366 191.883 175.132 191.648C174.908 191.413 174.796 191.115 174.796 190.752V185.216H172.3V184.064ZM182.097 184.064H184.593V180.8H185.841V184.064H188.913V185.216H185.841V190.368C185.841 190.688 185.985 190.848 186.273 190.848H188.529V192H185.825C185.462 192 185.163 191.883 184.929 191.648C184.705 191.413 184.593 191.115 184.593 190.752V185.216H182.097V184.064Z" fill="#2C0A38"/>
<defs>
<clipPath id="clip0">
<rect width="12" height="12" fill="white" transform="translate(145 113)"/>
</clipPath>
</defs>
</svg>
