<svg width="121" height="17" viewBox="0 0 121 17" fill="none" xmlns="http://www.w3.org/2000/svg">
<g clip-path="url(#clip0)">
<path d="M4.75 13.25C3.6455 13.25 2.75 12.3545 2.75 11.25V1.75H13.75V11.25C13.75 12.3545 12.8545 13.25 11.75 13.25" stroke="#24062F" stroke-miterlimit="10" stroke-linecap="round" stroke-linejoin="round"/>
<path d="M11.75 6.75H4.75V3.75H11.75V6.75Z" stroke="#24062F" stroke-miterlimit="10" stroke-linecap="round" stroke-linejoin="round"/>
<path d="M11.75 16.75H4.75V9.75H11.75V16.75Z" stroke="#24062F" stroke-miterlimit="10" stroke-linecap="round" stroke-linejoin="round"/>
<path d="M7.25 9.75V16.75" stroke="#24062F" stroke-miterlimit="10" stroke-linecap="round" stroke-linejoin="round"/>
<path d="M9.25 13.25V14.75" stroke="#24062F" stroke-miterlimit="10" stroke-linecap="round" stroke-linejoin="round"/>
</g>
<path d="M30.112 15C32.064 15 33.2 13.832 33.2 12.12C33.2 10.84 32.256 9.672 31.12 9.496C32.096 9.288 32.992 8.392 32.992 7.048C32.992 5.448 31.856 4.328 30 4.328H25.248V15H30.112ZM29.776 8.952H26.576V5.512H29.776C30.976 5.512 31.616 6.28 31.616 7.24C31.616 8.216 30.976 8.952 29.776 8.952ZM29.84 13.816H26.576V10.136H29.84C31.152 10.136 31.824 11 31.824 11.976C31.824 13.112 31.088 13.816 29.84 13.816ZM41.2945 15V9.688C41.2945 7.816 39.9345 7.08 38.3025 7.08C37.0385 7.08 36.0465 7.496 35.2145 8.36L35.7745 9.192C36.4625 8.456 37.2145 8.12 38.1425 8.12C39.2625 8.12 40.0945 8.712 40.0945 9.752V11.144C39.4705 10.424 38.5905 10.088 37.5345 10.088C36.2225 10.088 34.8305 10.904 34.8305 12.632C34.8305 14.312 36.2225 15.192 37.5345 15.192C38.5745 15.192 39.4545 14.824 40.0945 14.12V15H41.2945ZM37.9665 14.328C36.8465 14.328 36.0625 13.624 36.0625 12.648C36.0625 11.656 36.8465 10.952 37.9665 10.952C38.8145 10.952 39.6305 11.272 40.0945 11.912V13.368C39.6305 14.008 38.8145 14.328 37.9665 14.328ZM50.116 15V9.576C50.116 7.896 49.268 7.08 47.652 7.08C46.5 7.08 45.444 7.752 44.9 8.392V7.272H43.7V15H44.9V9.352C45.348 8.728 46.244 8.152 47.188 8.152C48.228 8.152 48.916 8.584 48.916 9.944V15H50.116ZM59.3125 15L55.8725 10.776L59.2965 7.272H57.7765L53.7125 11.384V4.328H52.5125V15H53.7125V12.792L54.9925 11.528L57.7765 15H59.3125ZM62.6833 15.192C63.3873 15.192 63.8193 14.984 64.1233 14.696L63.7713 13.8C63.6113 13.976 63.2913 14.12 62.9553 14.12C62.4273 14.12 62.1713 13.704 62.1713 13.128V8.328H63.7393V7.272H62.1713V5.16H60.9713V7.272H59.6913V8.328H60.9713V13.384C60.9713 14.536 61.5473 15.192 62.6833 15.192ZM68.9224 15.192C70.1864 15.192 71.2264 14.776 71.9944 14.008L71.4184 13.224C70.8104 13.848 69.9144 14.2 69.0344 14.2C67.3704 14.2 66.3464 12.984 66.2504 11.528H72.5064V11.224C72.5064 8.904 71.1304 7.08 68.7944 7.08C66.5864 7.08 64.9864 8.888 64.9864 11.128C64.9864 13.544 66.6344 15.192 68.9224 15.192ZM71.3224 10.648H66.2504C66.3144 9.464 67.1304 8.072 68.7784 8.072C70.5384 8.072 71.3064 9.496 71.3224 10.648ZM75.65 15V9.528C76.002 8.904 77.01 8.296 77.746 8.296C77.938 8.296 78.082 8.312 78.226 8.344V7.112C77.17 7.112 76.274 7.704 75.65 8.52V7.272H74.45V15H75.65ZM90.2593 15V9.416C90.2593 7.864 89.5073 7.08 88.0993 7.08C86.9792 7.08 85.9393 7.816 85.5073 8.52C85.2833 7.72 84.6113 7.08 83.4273 7.08C82.2913 7.08 81.2513 7.896 80.9313 8.392V7.272H79.7313V15H80.9313V9.352C81.3473 8.728 82.1793 8.152 82.9633 8.152C83.9713 8.152 84.3873 8.776 84.3873 9.752V15H85.5873V9.336C85.9873 8.728 86.8353 8.152 87.6353 8.152C88.6273 8.152 89.0593 8.776 89.0593 9.752V15H90.2593ZM93.2451 6.168C93.6931 6.168 94.0611 5.816 94.0611 5.368C94.0611 4.92 93.6931 4.552 93.2451 4.552C92.8131 4.552 92.4451 4.92 92.4451 5.368C92.4451 5.816 92.8131 6.168 93.2451 6.168ZM93.8531 15V7.272H92.6531V15H93.8531ZM102.663 15V9.576C102.663 7.896 101.815 7.08 100.199 7.08C99.0469 7.08 97.9909 7.752 97.4469 8.392V7.272H96.2469V15H97.4469V9.352C97.8949 8.728 98.7909 8.152 99.7349 8.152C100.775 8.152 101.463 8.584 101.463 9.944V15H102.663ZM111.091 15V9.688C111.091 7.816 109.731 7.08 108.099 7.08C106.835 7.08 105.843 7.496 105.011 8.36L105.571 9.192C106.259 8.456 107.011 8.12 107.939 8.12C109.059 8.12 109.891 8.712 109.891 9.752V11.144C109.267 10.424 108.387 10.088 107.331 10.088C106.019 10.088 104.627 10.904 104.627 12.632C104.627 14.312 106.019 15.192 107.331 15.192C108.371 15.192 109.251 14.824 109.891 14.12V15H111.091ZM107.763 14.328C106.643 14.328 105.859 13.624 105.859 12.648C105.859 11.656 106.643 10.952 107.763 10.952C108.611 10.952 109.427 11.272 109.891 11.912V13.368C109.427 14.008 108.611 14.328 107.763 14.328ZM114.697 15V4.328H113.497V15H114.697Z" fill="#2C0A38"/>
<defs>
<clipPath id="clip0">
<rect width="16" height="16" fill="white" transform="translate(0 1)"/>
</clipPath>
</defs>
</svg>
