<svg width="10" height="10" viewBox="0 0 10 10" fill="none" xmlns="http://www.w3.org/2000/svg">
<path d="M3.74987 9.3749C3.58412 9.37486 3.42518 9.30899 3.30799 9.19178L0.182993 6.06677C0.123299 6.00912 0.0756849 5.94016 0.0429293 5.8639C0.0101736 5.78765 -0.00706777 5.70564 -0.0077889 5.62265C-0.00851004 5.53966 0.00730353 5.45736 0.0387291 5.38055C0.0701546 5.30374 0.116563 5.23396 0.175246 5.17528C0.233929 5.1166 0.303711 5.07019 0.380521 5.03876C0.457332 5.00734 0.539631 4.99152 0.622618 4.99224C0.705605 4.99296 0.787618 5.01021 0.86387 5.04296C0.940123 5.07572 1.00909 5.12333 1.06674 5.18302L3.66237 7.77802L8.86112 0.269275C8.90691 0.199672 8.96616 0.139928 9.03537 0.0935546C9.10459 0.0471814 9.18238 0.0151152 9.26417 -0.000758477C9.34596 -0.0166322 9.4301 -0.0159929 9.51163 0.00112169C9.59317 0.0182363 9.67047 0.0514807 9.73897 0.0989003C9.80748 0.14632 9.86581 0.206958 9.91054 0.277248C9.95527 0.347538 9.98549 0.426062 9.99943 0.508202C10.0134 0.590343 10.0108 0.674442 9.99172 0.755554C9.97269 0.836667 9.93764 0.913157 9.88862 0.980525L4.26362 9.10553C4.21181 9.18126 4.14396 9.24465 4.06489 9.29121C3.98582 9.33776 3.89747 9.36634 3.80612 9.3749C3.78737 9.3749 3.76862 9.3749 3.74987 9.3749Z" fill="white"/>
</svg>
