<svg width="31" height="31" viewBox="0 0 31 31" fill="none" xmlns="http://www.w3.org/2000/svg">
<circle cx="15.5" cy="15.5" r="15.5" fill="#F8E5FF"/>
<path d="M17.2812 15.5013V11.6997" stroke="#24062F" stroke-width="1.125" stroke-miterlimit="10" stroke-linecap="round" stroke-linejoin="round"/>
<path d="M15.3963 9.80161C16.4371 9.80161 17.2808 8.95059 17.2808 7.90081C17.2808 6.85102 16.4371 6 15.3963 6C14.3555 6 13.5117 6.85102 13.5117 7.90081C13.5117 8.95059 14.3555 9.80161 15.3963 9.80161Z" stroke="#24062F" stroke-width="1.125" stroke-miterlimit="10" stroke-linecap="round" stroke-linejoin="round"/>
<path d="M11 16.1349V13.9173C11 13.819 11.0227 13.7219 11.0663 13.634C11.1099 13.546 11.1733 13.4695 11.2513 13.4104L13.5127 11.6997H17.2819L19.5553 13.4193C19.63 13.476 19.7163 13.5151 19.8079 13.5338C19.8995 13.5526 19.9941 13.5505 20.0848 13.5277L22.3074 12.9669" stroke="#24062F" stroke-width="1.125" stroke-miterlimit="10" stroke-linecap="round" stroke-linejoin="round"/>
<path d="M19.1654 21.2037L18.0523 17.8355C18.0106 17.7093 17.9306 17.5995 17.8236 17.5217C17.7166 17.4439 17.588 17.4021 17.4561 17.4021H14.7681C14.4349 17.4021 14.1153 17.2686 13.8797 17.031C13.6441 16.7933 13.5117 16.471 13.5117 16.1349V11.6997" stroke="#24062F" stroke-width="1.125" stroke-miterlimit="10" stroke-linecap="round" stroke-linejoin="round"/>
<path d="M21.367 24.3732H16.9697L17.2838 23.106H21.0529L21.367 24.3732Z" fill="#E9E9E9"/>
<path d="M21.367 24.3732H16.9697L17.2838 23.106H21.0529L21.367 24.3732Z" stroke="#24062F" stroke-width="1.125" stroke-miterlimit="10" stroke-linecap="round" stroke-linejoin="round"/>
<path d="M14.7684 19.9385V20.9947C14.7684 21.1318 14.7243 21.2652 14.6427 21.3749L12.8838 23.7401" stroke="#24062F" stroke-width="1.125" stroke-miterlimit="10" stroke-linecap="round" stroke-linejoin="round"/>
</svg>
