<svg width="31" height="31" viewBox="0 0 31 31" fill="none" xmlns="http://www.w3.org/2000/svg">
<circle cx="15.5" cy="15.5" r="15.5" fill="#72228E"/>
<path d="M17.2812 15.5012V11.6996" stroke="white" stroke-width="1.125" stroke-miterlimit="10" stroke-linecap="round" stroke-linejoin="round"/>
<path d="M15.3963 9.80161C16.4371 9.80161 17.2809 8.95059 17.2809 7.90081C17.2809 6.85102 16.4371 6 15.3963 6C14.3555 6 13.5117 6.85102 13.5117 7.90081C13.5117 8.95059 14.3555 9.80161 15.3963 9.80161Z" stroke="white" stroke-width="1.125" stroke-miterlimit="10" stroke-linecap="round" stroke-linejoin="round"/>
<path d="M11 16.1348V13.9172C11 13.8188 11.0227 13.7218 11.0663 13.6338C11.1099 13.5458 11.1733 13.4693 11.2513 13.4103L13.5127 11.6996H17.2819L19.5553 13.4192C19.63 13.4758 19.7163 13.515 19.8079 13.5337C19.8995 13.5524 19.9941 13.5503 20.0848 13.5275L22.3074 12.9668" stroke="white" stroke-width="1.125" stroke-miterlimit="10" stroke-linecap="round" stroke-linejoin="round"/>
<path d="M19.1654 21.2036L18.0523 17.8354C18.0106 17.7092 17.9306 17.5994 17.8236 17.5216C17.7166 17.4438 17.588 17.402 17.4561 17.402H14.7681C14.4349 17.402 14.1153 17.2685 13.8797 17.0308C13.6441 16.7932 13.5117 16.4709 13.5117 16.1348V11.6996" stroke="white" stroke-width="1.125" stroke-miterlimit="10" stroke-linecap="round" stroke-linejoin="round"/>
<path d="M21.3673 24.3733H16.97L17.2841 23.1061H21.0532L21.3673 24.3733Z" fill="#E9E9E9"/>
<path d="M21.3673 24.3733H16.97L17.2841 23.1061H21.0532L21.3673 24.3733Z" stroke="white" stroke-width="1.125" stroke-miterlimit="10" stroke-linecap="round" stroke-linejoin="round"/>
<path d="M14.7684 19.9386V20.9949C14.7684 21.132 14.7243 21.2653 14.6427 21.375L12.8838 23.7403" stroke="white" stroke-width="1.125" stroke-miterlimit="10" stroke-linecap="round" stroke-linejoin="round"/>
</svg>
