<svg width="31" height="31" viewBox="0 0 31 31" fill="none" xmlns="http://www.w3.org/2000/svg">
<circle cx="15.5" cy="15.5" r="15.5" fill="#F8E5FF"/>
<path d="M17 11.5C17.8284 11.5 18.5 10.8284 18.5 10C18.5 9.17157 17.8284 8.5 17 8.5C16.1716 8.5 15.5 9.17157 15.5 10C15.5 10.8284 16.1716 11.5 17 11.5Z" stroke="#24062F" stroke-miterlimit="10" stroke-linecap="square"/>
<path d="M11.25 23.5C11.9404 23.5 12.5 22.9404 12.5 22.25C12.5 21.5596 11.9404 21 11.25 21C10.5596 21 10 21.5596 10 22.25C10 22.9404 10.5596 23.5 11.25 23.5Z" stroke="#24062F" stroke-miterlimit="10" stroke-linecap="square"/>
<path d="M22.5 15.484L17.54 13.369L14.5 12.5L9.5 14.5" stroke="#24062F" stroke-linecap="round" stroke-linejoin="round"/>
<path d="M16.2382 17.9251L13.1982 17.0571" stroke="#24062F" stroke-miterlimit="10"/>
<path d="M12.5 19.5L14.5 12.5" stroke="#24062F" stroke-miterlimit="10" stroke-linecap="round"/>
<path d="M14.6465 23.5001L17.5405 13.3691" stroke="#24062F" stroke-miterlimit="10" stroke-linecap="round"/>
</svg>
