<svg width="16" height="16" viewBox="0 0 16 16" fill="none" xmlns="http://www.w3.org/2000/svg">
<path d="M8 0C6.41775 0 4.87103 0.469192 3.55544 1.34824C2.23985 2.22729 1.21447 3.47672 0.608967 4.93853C0.00346614 6.40034 -0.15496 8.00887 0.153721 9.56072C0.462403 11.1126 1.22433 12.538 2.34315 13.6569C3.46197 14.7757 4.88743 15.5376 6.43928 15.8463C7.99113 16.155 9.59966 15.9965 11.0615 15.391C12.5233 14.7855 13.7727 13.7602 14.6518 12.4446C15.5308 11.129 16 9.58225 16 8C15.9975 5.87903 15.1539 3.84565 13.6541 2.3459C12.1544 0.846145 10.121 0.00249086 8 0ZM8 15.0588C6.6039 15.0588 5.23915 14.6448 4.07833 13.8692C2.91751 13.0936 2.01277 11.9911 1.4785 10.7013C0.944235 9.41146 0.804447 7.99217 1.07681 6.62289C1.34918 5.25361 2.02147 3.99585 3.00866 3.00866C3.99585 2.02146 5.25362 1.34918 6.62289 1.07681C7.99217 0.804443 9.41146 0.944232 10.7013 1.4785C11.9911 2.01276 13.0936 2.91751 13.8692 4.07833C14.6448 5.23914 15.0588 6.6039 15.0588 8C15.0572 9.8716 14.3129 11.6661 12.9895 12.9895C11.6661 14.3129 9.87161 15.0572 8 15.0588ZM7.55765 4.99137C7.43982 4.87424 7.37325 4.71516 7.37255 4.54902C7.36791 4.50837 7.36791 4.46732 7.37255 4.42667C7.37969 4.38579 7.39126 4.34582 7.40706 4.30745C7.4226 4.26964 7.44261 4.23383 7.46667 4.20078C7.48911 4.16555 7.51542 4.13293 7.5451 4.10353C7.66527 3.99173 7.82332 3.92957 7.98745 3.92957C8.15159 3.92957 8.30964 3.99173 8.4298 4.10353C8.45949 4.13293 8.48579 4.16555 8.50824 4.20078C8.53113 4.23457 8.55107 4.27025 8.56785 4.30745C8.58365 4.34582 8.59522 4.38579 8.60235 4.42667C8.61543 4.46634 8.62385 4.5074 8.62745 4.54902C8.62675 4.71516 8.56019 4.87424 8.44235 4.99137C8.41474 5.02172 8.38307 5.04812 8.34824 5.0698C8.31449 5.09453 8.27755 5.11458 8.23843 5.12941C8.2013 5.14561 8.16231 5.1572 8.12235 5.16392C8.08218 5.17275 8.04113 5.17696 8 5.17647C7.83386 5.17577 7.67478 5.1092 7.55765 4.99137ZM9.47451 11.451C9.47451 11.5758 9.42493 11.6955 9.33668 11.7837C9.24843 11.872 9.12873 11.9216 9.00392 11.9216H6.99608C6.87127 11.9216 6.75158 11.872 6.66332 11.7837C6.57507 11.6955 6.52549 11.5758 6.52549 11.451C6.52549 11.3262 6.57507 11.2065 6.66332 11.1182C6.75158 11.03 6.87127 10.9804 6.99608 10.9804H7.52941V7.21568H7.05883C6.93402 7.21568 6.81432 7.1661 6.72607 7.07785C6.63782 6.9896 6.58824 6.8699 6.58824 6.7451C6.58824 6.62029 6.63782 6.50059 6.72607 6.41234C6.81432 6.32409 6.93402 6.27451 7.05883 6.27451H8C8.12481 6.27451 8.24451 6.32409 8.33276 6.41234C8.42101 6.50059 8.47059 6.62029 8.47059 6.7451V10.9804H9.00392C9.12873 10.9804 9.24843 11.03 9.33668 11.1182C9.42493 11.2065 9.47451 11.3262 9.47451 11.451Z" fill="#110615"/>
</svg>
