<svg width="28" height="28" viewBox="0 0 28 28" fill="none" xmlns="http://www.w3.org/2000/svg">
<path d="M25.6673 4.0835H2.33398C1.36749 4.0835 0.583984 4.867 0.583984 5.8335V22.1668C0.583984 23.1333 1.36749 23.9168 2.33398 23.9168H25.6673C26.6338 23.9168 27.4173 23.1333 27.4173 22.1668V5.8335C27.4173 4.867 26.6338 4.0835 25.6673 4.0835Z" fill="#1A1876"/>
<path d="M11.0846 18.6668C13.662 18.6668 15.7513 16.5775 15.7513 14.0002C15.7513 11.4228 13.662 9.3335 11.0846 9.3335C8.50731 9.3335 6.41797 11.4228 6.41797 14.0002C6.41797 16.5775 8.50731 18.6668 11.0846 18.6668Z" fill="#E61C24"/>
<path d="M16.8796 18.6668C19.4569 18.6668 21.5462 16.5775 21.5462 14.0002C21.5462 11.4228 19.4569 9.3335 16.8796 9.3335C14.3022 9.3335 12.2129 11.4228 12.2129 14.0002C12.2129 16.5775 14.3022 18.6668 16.8796 18.6668Z" fill="#F99F1B"/>
<path d="M13.9821 10.3462C13.4306 10.7822 12.9849 11.3375 12.6785 11.9703C12.3721 12.6031 12.2129 13.2971 12.2129 14.0002C12.2129 14.7033 12.3721 15.3973 12.6785 16.0301C12.9849 16.6629 13.4306 17.2182 13.9821 17.6542C14.5337 17.2182 14.9794 16.6629 15.2858 16.0301C15.5922 15.3973 15.7514 14.7033 15.7514 14.0002C15.7514 13.2971 15.5922 12.6031 15.2858 11.9703C14.9794 11.3375 14.5337 10.7822 13.9821 10.3462Z" fill="#F26622"/>
</svg>
