<svg width="31" height="31" viewBox="0 0 31 31" fill="none" xmlns="http://www.w3.org/2000/svg">
<circle cx="15.5" cy="15.5" r="15.5" fill="#F8E5FF"/>
<path d="M9.24363 24.9724L10.9696 21.5198C11.0186 21.4216 11.0411 21.3122 11.0349 21.2026C11.0286 21.093 10.9937 20.987 10.9337 20.895L9.23482 18.2894C9.06134 18.0468 8.97965 17.7505 9.00431 17.4533C9.02897 17.1561 9.15838 16.8773 9.36947 16.6666L12.6779 13.3581C12.7762 13.26 12.9042 13.1972 13.0419 13.1795C13.1796 13.1617 13.3194 13.19 13.4393 13.26L17.9269 15.8782C18.0109 15.9271 18.105 15.956 18.2019 15.9625L21.1989 16.1632" stroke="#24062F" stroke-width="1.2" stroke-miterlimit="10" stroke-linecap="round" stroke-linejoin="round"/>
<path d="M15.8087 14.6323L12.4184 18.0226C12.3457 18.0953 12.292 18.1848 12.2619 18.2831C12.2318 18.3814 12.2263 18.4856 12.2458 18.5866C12.2653 18.6875 12.3092 18.7822 12.3738 18.8622C12.4383 18.9422 12.5215 19.0053 12.616 19.0457L15.2506 20.4181C15.3392 20.4642 15.4155 20.5308 15.4733 20.6123C15.5311 20.6938 15.5686 20.7879 15.5828 20.8868L16.1661 24.9718" stroke="#24062F" stroke-width="1.2" stroke-miterlimit="10" stroke-linecap="round" stroke-linejoin="round"/>
<path d="M16.165 11.7592C17.2076 11.7592 18.0527 10.9141 18.0527 9.87157C18.0527 8.82903 17.2076 7.98389 16.165 7.98389C15.1225 7.98389 14.2773 8.82903 14.2773 9.87157C14.2773 10.9141 15.1225 11.7592 16.165 11.7592Z" stroke="#24062F" stroke-width="1.2" stroke-miterlimit="10" stroke-linecap="round" stroke-linejoin="round"/>
<path d="M25.3838 10.1787C25.9621 8.82915 25.5247 7.34674 24.4067 6.86763C23.2888 6.38852 21.9136 7.09414 21.3353 8.44367C20.7569 9.7932 21.1944 11.2756 22.3123 11.7547C23.4303 12.2338 24.8054 11.5282 25.3838 10.1787Z" stroke="#24062F" stroke-width="1.2" stroke-miterlimit="10" stroke-linecap="round" stroke-linejoin="round"/>
<path d="M22.3132 11.7539L21.3467 14.0091" stroke="#24062F" stroke-width="1.2" stroke-miterlimit="10" stroke-linecap="round" stroke-linejoin="round"/>
</svg>
