<svg width="31" height="31" viewBox="0 0 31 31" fill="none" xmlns="http://www.w3.org/2000/svg">
<circle cx="15.5" cy="15.5" r="15.5" fill="#72228E"/>
<path d="M9.24363 24.9724L10.9696 21.5199C11.0186 21.4217 11.0411 21.3123 11.0349 21.2027C11.0286 21.0931 10.9937 20.987 10.9337 20.8951L9.23482 18.2894C9.06134 18.0469 8.97965 17.7505 9.00431 17.4533C9.02897 17.1561 9.15838 16.8773 9.36947 16.6667L12.6779 13.3582C12.7762 13.2601 12.9042 13.1973 13.0419 13.1796C13.1796 13.1618 13.3194 13.1901 13.4393 13.26L17.9269 15.8782C18.0109 15.9272 18.105 15.9561 18.2019 15.9626L21.1989 16.1633" stroke="white" stroke-width="1.2" stroke-miterlimit="10" stroke-linecap="round" stroke-linejoin="round"/>
<path d="M15.8086 14.6322L12.4184 18.0224C12.3457 18.0952 12.292 18.1846 12.2619 18.2829C12.2318 18.3813 12.2263 18.4855 12.2458 18.5864C12.2653 18.6874 12.3092 18.782 12.3737 18.862C12.4383 18.9421 12.5214 19.0051 12.616 19.0456L15.2505 20.4179C15.3391 20.464 15.4155 20.5306 15.4733 20.6122C15.531 20.6937 15.5686 20.7878 15.5828 20.8867L16.166 24.9716" stroke="white" stroke-width="1.2" stroke-miterlimit="10" stroke-linecap="round" stroke-linejoin="round"/>
<path d="M16.1648 11.7593C17.2073 11.7593 18.0525 10.9142 18.0525 9.87162C18.0525 8.82909 17.2073 7.98394 16.1648 7.98394C15.1222 7.98394 14.2771 8.82909 14.2771 9.87162C14.2771 10.9142 15.1222 11.7593 16.1648 11.7593Z" stroke="white" stroke-width="1.2" stroke-miterlimit="10" stroke-linecap="round" stroke-linejoin="round"/>
<path d="M25.3834 10.1786C25.9618 8.82906 25.5243 7.34666 24.4064 6.86755C23.2884 6.38844 21.9133 7.09405 21.335 8.44358C20.7566 9.79311 21.194 11.2755 22.312 11.7546C23.4299 12.2337 24.8051 11.5281 25.3834 10.1786Z" stroke="white" stroke-width="1.2" stroke-miterlimit="10" stroke-linecap="round" stroke-linejoin="round"/>
<path d="M22.3127 11.7537L21.3463 14.0089" stroke="white" stroke-width="1.2" stroke-miterlimit="10" stroke-linecap="round" stroke-linejoin="round"/>
</svg>
