<svg width="31" height="31" viewBox="0 0 31 31" fill="none" xmlns="http://www.w3.org/2000/svg">
<circle cx="15.5" cy="15.5" r="15.5" fill="#F8E5FF"/>
<path d="M7 23.9995C7.763 24.0017 8.51709 23.8356 9.20851 23.5129C9.89993 23.1903 10.5116 22.719 11 22.1328C11.8892 23.1937 13.1633 23.8579 14.5422 23.9793C15.921 24.1007 17.2917 23.6694 18.3525 22.7803C18.5871 22.5841 18.8038 22.3674 19 22.1328C19.4872 22.7204 20.0987 23.1925 20.7904 23.5153C21.4821 23.8381 22.2367 24.0034 23 23.9995" stroke="#24062F" stroke-width="1.2" stroke-linecap="round" stroke-linejoin="round"/>
<path d="M7 20.7998C7.763 20.802 8.51709 20.6359 9.20851 20.3132C9.89993 19.9906 10.5116 19.5193 11 18.9331C11.8892 19.994 13.1633 20.6581 14.5422 20.7796C15.921 20.901 17.2917 20.4697 18.3525 19.5806C18.5871 19.3844 18.8038 19.1677 19 18.9331C19.4872 19.5206 20.0987 19.9928 20.7904 20.3156C21.4821 20.6384 22.2367 20.8037 23 20.7998" stroke="#24062F" stroke-width="1.2" stroke-linecap="round" stroke-linejoin="round"/>
<path d="M15.0004 11.2C15.884 11.2 16.6004 10.4836 16.6004 9.59999C16.6004 8.71634 15.884 8 15.0004 8C14.1167 8 13.4004 8.71634 13.4004 9.59999C13.4004 10.4836 14.1167 11.2 15.0004 11.2Z" stroke="#24062F" stroke-width="1.2" stroke-linecap="round" stroke-linejoin="round"/>
<path d="M15.0004 11.2C15.884 11.2 16.6004 10.4836 16.6004 9.59999C16.6004 8.71634 15.884 8 15.0004 8C14.1167 8 13.4004 8.71634 13.4004 9.59999C13.4004 10.4836 14.1167 11.2 15.0004 11.2Z" stroke="#24062F" stroke-width="1.2" stroke-linecap="round" stroke-linejoin="round"/>
<path d="M21.9331 9.06689L17.6664 13.3335H12.3331L8.06641 9.06689" stroke="#24062F" stroke-width="1.2" stroke-linecap="round" stroke-linejoin="round"/>
<path d="M12.334 13.3335V17.6001" stroke="#24062F" stroke-width="1.2" stroke-linecap="round" stroke-linejoin="round"/>
<path d="M17.666 13.3335V17.6001" stroke="#24062F" stroke-width="1.2" stroke-linecap="round" stroke-linejoin="round"/>
</svg>
