<svg width="31" height="31" viewBox="0 0 31 31" fill="none" xmlns="http://www.w3.org/2000/svg">
<circle cx="15.5" cy="15.5" r="15.5" fill="#72228E"/>
<path d="M8 22.9996C8.763 23.0019 9.51709 22.8358 10.2085 22.5131C10.8999 22.1904 11.5116 21.7192 12 21.133C12.8892 22.1938 14.1633 22.858 15.5422 22.9794C16.921 23.1008 18.2917 22.6696 19.3525 21.7804C19.5871 21.5842 19.8038 21.3676 20 21.133C20.4872 21.7205 21.0987 22.1927 21.7904 22.5154C22.4821 22.8382 23.2367 23.0036 24 22.9996" stroke="white" stroke-width="1.2" stroke-linecap="round" stroke-linejoin="round"/>
<path d="M8 19.7999C8.763 19.8022 9.51709 19.6361 10.2085 19.3134C10.8999 18.9908 11.5116 18.5195 12 17.9333C12.8892 18.9941 14.1633 19.6583 15.5422 19.7798C16.921 19.9012 18.2917 19.4699 19.3525 18.5808C19.5871 18.3846 19.8038 18.1679 20 17.9333C20.4872 18.5208 21.0987 18.993 21.7904 19.3158C22.4821 19.6386 23.2367 19.8039 24 19.7999" stroke="white" stroke-width="1.2" stroke-linecap="round" stroke-linejoin="round"/>
<path d="M16 10.2C16.8837 10.2 17.6 9.48364 17.6 8.59999C17.6 7.71634 16.8837 7 16 7C15.1163 7 14.4 7.71634 14.4 8.59999C14.4 9.48364 15.1163 10.2 16 10.2Z" stroke="white" stroke-width="1.2" stroke-linecap="round" stroke-linejoin="round"/>
<path d="M16.0003 10.2C16.8839 10.2 17.6003 9.48364 17.6003 8.59999C17.6003 7.71634 16.8839 7 16.0003 7C15.1166 7 14.4003 7.71634 14.4003 8.59999C14.4003 9.48364 15.1166 10.2 16.0003 10.2Z" stroke="white" stroke-width="1.2" stroke-linecap="round" stroke-linejoin="round"/>
<path d="M22.9333 8.06667L18.6667 12.3333H13.3333L9.06667 8.06667" stroke="white" stroke-width="1.2" stroke-linecap="round" stroke-linejoin="round"/>
<path d="M13.3342 12.3333V16.6" stroke="white" stroke-width="1.2" stroke-linecap="round" stroke-linejoin="round"/>
<path d="M18.6663 12.3333V16.6" stroke="white" stroke-width="1.2" stroke-linecap="round" stroke-linejoin="round"/>
</svg>
