<svg width="529" height="272" viewBox="0 0 529 272" fill="none" xmlns="http://www.w3.org/2000/svg">
<rect width="529" height="272" rx="10" fill="#F1F3FF"/>
<path d="M154.88 83.24C158.48 83.24 159.8 81.26 159.8 79.32C159.8 74.34 151.9 76.06 151.9 73.06C151.9 71.8 153.04 70.94 154.64 70.94C156.1 70.94 157.5 71.44 158.5 72.54L159.5 71.32C158.38 70.14 156.8 69.46 154.76 69.46C152.14 69.46 150.18 70.96 150.18 73.16C150.18 77.92 158.08 76.02 158.08 79.46C158.08 80.48 157.32 81.76 154.94 81.76C153.06 81.76 151.62 80.84 150.74 79.86L149.76 81.12C150.86 82.36 152.56 83.24 154.88 83.24ZM166.579 83.24C168.159 83.24 169.459 82.72 170.419 81.76L169.699 80.78C168.939 81.56 167.819 82 166.719 82C164.639 82 163.359 80.48 163.239 78.66H171.059V78.28C171.059 75.38 169.339 73.1 166.419 73.1C163.659 73.1 161.659 75.36 161.659 78.16C161.659 81.18 163.719 83.24 166.579 83.24ZM169.579 77.56H163.239C163.319 76.08 164.339 74.34 166.399 74.34C168.599 74.34 169.559 76.12 169.579 77.56ZM175.928 83.24C176.808 83.24 177.348 82.98 177.728 82.62L177.288 81.5C177.088 81.72 176.688 81.9 176.268 81.9C175.608 81.9 175.288 81.38 175.288 80.66V74.66H177.248V73.34H175.288V70.7H173.788V73.34H172.188V74.66H173.788V80.98C173.788 82.42 174.508 83.24 175.928 83.24ZM181.807 83.24C182.687 83.24 183.227 82.98 183.607 82.62L183.167 81.5C182.967 81.72 182.567 81.9 182.147 81.9C181.487 81.9 181.167 81.38 181.167 80.66V74.66H183.127V73.34H181.167V70.7H179.667V73.34H178.067V74.66H179.667V80.98C179.667 82.42 180.387 83.24 181.807 83.24ZM191.142 71.96C191.702 71.96 192.162 71.52 192.162 70.96C192.162 70.4 191.702 69.94 191.142 69.94C190.602 69.94 190.142 70.4 190.142 70.96C190.142 71.52 190.602 71.96 191.142 71.96ZM191.902 83V73.34H190.402V83H191.902ZM202.915 83V76.22C202.915 74.12 201.855 73.1 199.835 73.1C198.395 73.1 197.075 73.94 196.395 74.74V73.34H194.895V83H196.395V75.94C196.955 75.16 198.075 74.44 199.255 74.44C200.555 74.44 201.415 74.98 201.415 76.68V83H202.915ZM213.93 83V76.22C213.93 74.12 212.87 73.1 210.85 73.1C209.41 73.1 208.09 73.94 207.41 74.74V73.34H205.91V83H207.41V75.94C207.97 75.16 209.09 74.44 210.27 74.44C211.57 74.44 212.43 74.98 212.43 76.68V83H213.93ZM230.582 83L226.282 77.72L230.562 73.34H228.662L223.582 78.48V69.66H222.082V83H223.582V80.24L225.182 78.66L228.662 83H230.582ZM236.517 83.24C239.457 83.24 241.297 80.96 241.297 78.16C241.297 75.36 239.457 73.1 236.517 73.1C233.577 73.1 231.737 75.36 231.737 78.16C231.737 80.96 233.577 83.24 236.517 83.24ZM236.517 81.9C234.457 81.9 233.297 80.14 233.297 78.16C233.297 76.2 234.457 74.44 236.517 74.44C238.577 74.44 239.717 76.2 239.717 78.16C239.717 80.14 238.577 81.9 236.517 81.9ZM245.242 83V76.16C245.682 75.38 246.942 74.62 247.862 74.62C248.102 74.62 248.282 74.64 248.462 74.68V73.14C247.142 73.14 246.022 73.88 245.242 74.9V73.34H243.742V83H245.242ZM252.784 83.24C253.664 83.24 254.204 82.98 254.584 82.62L254.144 81.5C253.944 81.72 253.544 81.9 253.124 81.9C252.464 81.9 252.144 81.38 252.144 80.66V74.66H254.104V73.34H252.144V70.7H250.644V73.34H249.044V74.66H250.644V80.98C250.644 82.42 251.364 83.24 252.784 83.24ZM260.583 83.24C262.163 83.24 263.463 82.72 264.423 81.76L263.703 80.78C262.943 81.56 261.823 82 260.723 82C258.643 82 257.363 80.48 257.243 78.66H265.063V78.28C265.063 75.38 263.343 73.1 260.423 73.1C257.663 73.1 255.663 75.36 255.663 78.16C255.663 81.18 257.723 83.24 260.583 83.24ZM263.583 77.56H257.243C257.323 76.08 258.343 74.34 260.403 74.34C262.603 74.34 263.563 76.12 263.583 77.56ZM269.932 83.24C270.812 83.24 271.352 82.98 271.732 82.62L271.292 81.5C271.092 81.72 270.692 81.9 270.272 81.9C269.612 81.9 269.292 81.38 269.292 80.66V74.66H271.252V73.34H269.292V70.7H267.792V73.34H266.192V74.66H267.792V80.98C267.792 82.42 268.512 83.24 269.932 83.24ZM279.267 71.96C279.827 71.96 280.287 71.52 280.287 70.96C280.287 70.4 279.827 69.94 279.267 69.94C278.727 69.94 278.267 70.4 278.267 70.96C278.267 71.52 278.727 71.96 279.267 71.96ZM280.027 83V73.34H278.527V83H280.027ZM290.616 83.24C291.496 83.24 292.036 82.98 292.416 82.62L291.976 81.5C291.776 81.72 291.376 81.9 290.956 81.9C290.296 81.9 289.976 81.38 289.976 80.66V74.66H291.936V73.34H289.976V70.7H288.476V73.34H286.876V74.66H288.476V80.98C288.476 82.42 289.196 83.24 290.616 83.24ZM298.415 83.24C299.995 83.24 301.295 82.72 302.255 81.76L301.535 80.78C300.775 81.56 299.655 82 298.555 82C296.475 82 295.195 80.48 295.075 78.66H302.895V78.28C302.895 75.38 301.175 73.1 298.255 73.1C295.495 73.1 293.495 75.36 293.495 78.16C293.495 81.18 295.555 83.24 298.415 83.24ZM301.415 77.56H295.075C295.155 76.08 296.175 74.34 298.235 74.34C300.435 74.34 301.395 76.12 301.415 77.56ZM306.824 83V76.16C307.264 75.38 308.524 74.62 309.444 74.62C309.684 74.62 309.864 74.64 310.044 74.68V73.14C308.724 73.14 307.604 73.88 306.824 74.9V73.34H305.324V83H306.824ZM325.086 83V76.02C325.086 74.08 324.146 73.1 322.386 73.1C320.986 73.1 319.686 74.02 319.146 74.9C318.866 73.9 318.026 73.1 316.546 73.1C315.126 73.1 313.826 74.12 313.426 74.74V73.34H311.926V83H313.426V75.94C313.946 75.16 314.986 74.44 315.966 74.44C317.226 74.44 317.746 75.22 317.746 76.44V83H319.246V75.92C319.746 75.16 320.806 74.44 321.806 74.44C323.046 74.44 323.586 75.22 323.586 76.44V83H325.086ZM328.818 71.96C329.378 71.96 329.838 71.52 329.838 70.96C329.838 70.4 329.378 69.94 328.818 69.94C328.278 69.94 327.818 70.4 327.818 70.96C327.818 71.52 328.278 71.96 328.818 71.96ZM329.578 83V73.34H328.078V83H329.578ZM340.59 83V76.22C340.59 74.12 339.53 73.1 337.51 73.1C336.07 73.1 334.75 73.94 334.07 74.74V73.34H332.57V83H334.07V75.94C334.63 75.16 335.75 74.44 336.93 74.44C338.23 74.44 339.09 74.98 339.09 76.68V83H340.59ZM351.126 83V76.36C351.126 74.02 349.426 73.1 347.386 73.1C345.806 73.1 344.566 73.62 343.526 74.7L344.226 75.74C345.086 74.82 346.026 74.4 347.186 74.4C348.586 74.4 349.626 75.14 349.626 76.44V78.18C348.846 77.28 347.746 76.86 346.426 76.86C344.786 76.86 343.046 77.88 343.046 80.04C343.046 82.14 344.786 83.24 346.426 83.24C347.726 83.24 348.826 82.78 349.626 81.9V83H351.126ZM346.966 82.16C345.566 82.16 344.586 81.28 344.586 80.06C344.586 78.82 345.566 77.94 346.966 77.94C348.026 77.94 349.046 78.34 349.626 79.14V80.96C349.046 81.76 348.026 82.16 346.966 82.16ZM355.633 83V69.66H354.133V83H355.633ZM362.985 83.24C364.565 83.24 365.865 82.72 366.825 81.76L366.105 80.78C365.345 81.56 364.225 82 363.125 82C361.045 82 359.765 80.48 359.645 78.66H367.465V78.28C367.465 75.38 365.745 73.1 362.825 73.1C360.065 73.1 358.065 75.36 358.065 78.16C358.065 81.18 360.125 83.24 362.985 83.24ZM365.985 77.56H359.645C359.725 76.08 360.745 74.34 362.805 74.34C365.005 74.34 365.965 76.12 365.985 77.56ZM377.915 83V76.22C377.915 74.12 376.855 73.1 374.835 73.1C373.395 73.1 372.075 73.94 371.395 74.74V73.34H369.895V83H371.395V75.94C371.955 75.16 373.075 74.44 374.255 74.44C375.555 74.44 376.415 74.98 376.415 76.68V83H377.915Z" fill="#2C0A38"/>
<g clip-path="url(#clip0)">
<path d="M238.609 186.203C232.189 186.203 226.984 180.998 226.984 174.578V119.359H290.922V174.578C290.922 180.998 285.717 186.203 279.297 186.203" stroke="#24062F" stroke-width="5.8125" stroke-miterlimit="10" stroke-linecap="round" stroke-linejoin="round"/>
<path d="M279.297 148.422H238.609V130.984H279.297V148.422Z" stroke="#24062F" stroke-width="5.8125" stroke-miterlimit="10" stroke-linecap="round" stroke-linejoin="round"/>
<path d="M279.297 206.547H238.609V165.859H279.297V206.547Z" stroke="#24062F" stroke-width="5.8125" stroke-miterlimit="10" stroke-linecap="round" stroke-linejoin="round"/>
<path d="M253.141 165.859V206.547" stroke="#24062F" stroke-width="5.8125" stroke-miterlimit="10" stroke-linecap="round" stroke-linejoin="round"/>
<path d="M264.766 186.203V194.922" stroke="#24062F" stroke-width="5.8125" stroke-miterlimit="10" stroke-linecap="round" stroke-linejoin="round"/>
</g>
<defs>
<clipPath id="clip0">
<rect width="93" height="93" fill="white" transform="translate(211 115)"/>
</clipPath>
</defs>
</svg>
