<svg width="61" height="25" viewBox="0 0 61 25" fill="none" xmlns="http://www.w3.org/2000/svg">
<g clip-path="url(#clip0)">
<path d="M10.4456 8.3208L12.3483 13.9562L14.2138 8.3208H16.415L13.1318 16.6793H11.4902L8.20703 8.3208H10.4456Z" fill="#FF5B24"/>
<path d="M21.3784 15.357C22.7589 15.357 23.5424 14.6762 24.2885 13.6929C24.6989 13.1634 25.2213 13.0499 25.5943 13.3525C25.9674 13.655 26.0047 14.2224 25.5943 14.7519C24.5124 16.1891 23.132 17.059 21.3784 17.059C19.4757 17.059 17.7968 16 16.6402 14.1467C16.3044 13.655 16.3791 13.1255 16.7521 12.8608C17.1252 12.596 17.6849 12.7095 18.0206 13.239C18.8414 14.4871 19.9607 15.357 21.3784 15.357ZM23.9528 10.705C23.9528 11.3857 23.4304 11.8396 22.8335 11.8396C22.2365 11.8396 21.7142 11.3857 21.7142 10.705C21.7142 10.0242 22.2365 9.57031 22.8335 9.57031C23.4304 9.57031 23.9528 10.062 23.9528 10.705Z" fill="#FF5B24"/>
<path d="M29.2121 8.32068V9.45532C29.7718 8.66107 30.6299 8.09375 31.8984 8.09375C33.5027 8.09375 35.3681 9.45532 35.3681 12.3676C35.3681 15.4311 33.5773 16.9062 31.7118 16.9062C30.7418 16.9062 29.8464 16.5279 29.1748 15.5824V19.5915H27.1602V8.32068H29.2121ZM29.2121 12.481C29.2121 14.183 30.1822 15.0907 31.2641 15.0907C32.3088 15.0907 33.3534 14.2587 33.3534 12.481C33.3534 10.7413 32.3088 9.90918 31.2641 9.90918C30.2195 9.90918 29.2121 10.7034 29.2121 12.481Z" fill="#FF5B24"/>
<path d="M38.9133 8.32068V9.45532C39.4729 8.66107 40.331 8.09375 41.5995 8.09375C43.2038 8.09375 45.0693 9.45532 45.0693 12.3676C45.0693 15.4311 43.2784 16.9062 41.413 16.9062C40.443 16.9062 39.5476 16.5279 38.876 15.5824V19.5915H36.8613V8.32068H38.9133ZM38.9133 12.481C38.9133 14.183 39.8833 15.0907 40.9653 15.0907C42.0099 15.0907 43.0546 14.2587 43.0546 12.481C43.0546 10.7413 42.0099 9.90918 40.9653 9.90918C39.8833 9.90918 38.9133 10.7034 38.9133 12.481Z" fill="#FF5B24"/>
<path d="M49.3602 8.09375C51.0391 8.09375 52.2329 8.888 52.7553 10.8547L50.9271 11.1573C50.8898 10.1739 50.2929 9.83354 49.3975 9.83354C48.7259 9.83354 48.2036 10.1361 48.2036 10.6278C48.2036 11.006 48.4647 11.3842 49.2482 11.5355L50.6287 11.8003C51.9718 12.065 52.718 12.9727 52.718 14.183C52.718 15.9984 51.1137 16.9062 49.584 16.9062C47.9797 16.9062 46.1889 16.0741 45.9277 14.0317L47.7559 13.7291C47.8678 14.7882 48.5021 15.1664 49.5467 15.1664C50.3302 15.1664 50.8525 14.8638 50.8525 14.3721C50.8525 13.9183 50.5914 13.5779 49.7332 13.4266L48.4647 13.1997C47.1216 12.9349 46.3008 11.9894 46.3008 10.7791C46.3381 8.888 48.017 8.09375 49.3602 8.09375Z" fill="#FF5B24"/>
</g>
<defs>
<clipPath id="clip0">
<rect width="61" height="25" fill="white"/>
</clipPath>
</defs>
</svg>
