<svg width="28" height="28" viewBox="0 0 28 28" fill="none" xmlns="http://www.w3.org/2000/svg">
<path d="M25.6673 4.08203H2.33398C1.36749 4.08203 0.583984 4.86553 0.583984 5.83203V22.1654C0.583984 23.1319 1.36749 23.9154 2.33398 23.9154H25.6673C26.6338 23.9154 27.4173 23.1319 27.4173 22.1654V5.83203C27.4173 4.86553 26.6338 4.08203 25.6673 4.08203Z" fill="#1A1876"/>
<path d="M11.2227 16.7969H12.7446L13.6972 11.2109H12.1747L11.2227 16.7969Z" fill="white"/>
<path d="M16.7672 13.4559C16.2352 13.1975 15.9091 13.0248 15.9126 12.7635C15.9126 12.5301 16.1885 12.2828 16.7876 12.2828C17.229 12.2718 17.6666 12.3672 18.0633 12.5611L18.2698 11.3506C17.8322 11.1928 17.3701 11.1138 16.9048 11.1173C15.4004 11.1173 14.3382 11.8756 14.3318 12.9606C14.3236 13.7633 15.0901 14.2113 15.6658 14.4773C16.2585 14.7509 16.458 14.9253 16.4551 15.1697C16.451 15.5442 15.982 15.7157 15.5439 15.7157C14.9772 15.729 14.4164 15.5974 13.9147 15.3336L13.7012 16.5837C14.2439 16.7843 14.8183 16.8853 15.3969 16.8818C16.9976 16.8818 18.0365 16.1328 18.0482 14.9737C18.0511 14.3379 17.6457 13.8543 16.7672 13.4559Z" fill="white"/>
<path d="M22.1705 11.2176H20.994C20.8286 11.1964 20.6609 11.2303 20.5168 11.314C20.3726 11.3977 20.2601 11.5266 20.1965 11.6807L17.9355 16.7983H19.5345C19.5345 16.7983 19.7958 16.11 19.8547 15.9589H21.8048C21.8503 16.1549 21.9903 16.796 21.9903 16.796H23.4031L22.1705 11.2176ZM20.2934 14.8185C20.3564 14.6569 20.9776 13.0615 21.1019 12.7237C21.3072 13.6862 21.1071 12.7523 21.5569 14.8185H20.2934Z" fill="white"/>
<path d="M9.94624 11.2148L8.45524 15.024L8.29657 14.2499L7.76282 11.6832C7.72392 11.5345 7.63261 11.4049 7.5057 11.3182C7.37879 11.2315 7.22483 11.1935 7.07216 11.2113H4.61691L4.59766 11.328C5.1559 11.4597 5.69389 11.6659 6.19716 11.9411L7.55049 16.7927H9.16166L11.5586 11.2172L9.94624 11.2148Z" fill="white"/>
</svg>
